<svg xmlns="http://www.w3.org/2000/svg" viewBox="0 0 500 500" width="500" height="500" style="background:white">
  <circle cx="183.4" cy="181.1" r="11.7" fill="black"/>
  <circle cx="40.0" cy="174.5" r="11.2" fill="black"/>
  <circle cx="111.6" cy="202.9" r="10.8" fill="black"/>
  <circle cx="268.8" cy="112.8" r="10.8" fill="black"/>
  <circle cx="164.7" cy="108.3" r="10.8" fill="black"/>
  <circle cx="443.2" cy="181.1" r="10.5" fill="black"/>
  <circle cx="368.0" cy="121.2" r="10.5" fill="black"/>
  <circle cx="241.9" cy="55.4" r="10.5" fill="black"/>
  <circle cx="404.3" cy="169.2" r="10.3" fill="black"/>
  <circle cx="329.2" cy="113.0" r="10.3" fill="black"/>
  <circle cx="169.4" cy="56.6" r="10.3" fill="black"/>
  <circle cx="192.3" cy="50.5" r="9.8" fill="black"/>
  <circle cx="153.0" cy="203.6" r="9.6" fill="black"/>
  <circle cx="365.0" cy="144.8" r="9.6" fill="black"/>
  <circle cx="91.2" cy="192.3" r="9.4" fill="black"/>
  <circle cx="190.9" cy="159.6" r="9.4" fill="black"/>
  <circle cx="139.2" cy="87.7" r="9.4" fill="black"/>
  <circle cx="289.9" cy="121.7" r="9.1" fill="black"/>
  <circle cx="185.5" cy="116.5" r="9.1" fill="black"/>
  <circle cx="353.3" cy="105.0" r="9.1" fill="black"/>
  <circle cx="133.6" cy="200.7" r="8.9" fill="black"/>
  <circle cx="259.5" cy="94.1" r="8.9" fill="black"/>
  <circle cx="270.2" cy="76.7" r="8.9" fill="black"/>
  <circle cx="62.0" cy="180.9" r="8.4" fill="black"/>
  <circle cx="364.8" cy="164.9" r="8.4" fill="black"/>
  <circle cx="439.4" cy="161.0" r="8.4" fill="black"/>
  <circle cx="221.6" cy="50.5" r="8.2" fill="black"/>
  <circle cx="152.8" cy="74.4" r="8.0" fill="black"/>
  <circle cx="262.8" cy="58.3" r="8.0" fill="black"/>
  <circle cx="202.9" cy="144.4" r="7.7" fill="black"/>
  <circle cx="425.4" cy="175.5" r="7.5" fill="black"/>
  <circle cx="380.7" cy="170.8" r="7.5" fill="black"/>
  <circle cx="201.9" cy="127.3" r="7.3" fill="black"/>
  <circle cx="309.1" cy="118.6" r="7.3" fill="black"/>
  <circle cx="80.0" cy="177.3" r="7.0" fill="black"/>
  <circle cx="145.3" cy="104.8" r="6.8" fill="black"/>
  <circle cx="140.1" cy="216.7" r="6.6" fill="black"/>
  <circle cx="167.1" cy="191.4" r="6.3" fill="black"/>
  <circle cx="379.3" cy="155.6" r="6.1" fill="black"/>
  <circle cx="155.8" cy="91.7" r="6.1" fill="black"/>
  <circle cx="423.0" cy="160.7" r="5.8" fill="black"/>
  <circle cx="137.8" cy="71.6" r="5.8" fill="black"/>
  <circle cx="207.5" cy="41.6" r="5.8" fill="black"/>
  <circle cx="208.0" cy="58.3" r="5.6" fill="black"/>
  <circle cx="460.0" cy="179.2" r="5.4" fill="black"/>
  <circle cx="189.0" cy="139.2" r="5.4" fill="black"/>
  <circle cx="251.8" cy="108.8" r="5.4" fill="black"/>
  <circle cx="125.9" cy="214.1" r="5.1" fill="black"/>
  <circle cx="275.9" cy="128.7" r="5.1" fill="black"/>
  <circle cx="170.6" cy="204.5" r="4.9" fill="black"/>
  <circle cx="349.3" cy="119.6" r="4.9" fill="black"/>
  <circle cx="253.6" cy="69.5" r="4.9" fill="black"/>
  <circle cx="59.7" cy="165.2" r="4.7" fill="black"/>
  <circle cx="368.5" cy="104.3" r="4.7" fill="black"/>
  <circle cx="231.6" cy="40.0" r="4.7" fill="black"/>
  <circle cx="199.6" cy="171.5" r="4.4" fill="black"/>
  <circle cx="151.6" cy="59.7" r="4.4" fill="black"/>
  <circle cx="390.3" cy="160.7" r="4.2" fill="black"/>
  <circle cx="376.7" cy="134.8" r="4.2" fill="black"/>
  <circle cx="180.9" cy="102.2" r="4.2" fill="black"/>
  <circle cx="338.8" cy="99.0" r="4.0" fill="black"/>
  <circle cx="274.0" cy="95.5" r="4.0" fill="black"/>
  <circle cx="256.0" cy="80.2" r="4.0" fill="black"/>
  <circle cx="95.9" cy="205.2" r="3.7" fill="black"/>
  <circle cx="76.5" cy="188.3" r="3.7" fill="black"/>
  <circle cx="319.8" cy="124.7" r="3.7" fill="black"/>
  <circle cx="178.1" cy="197.2" r="3.5" fill="black"/>
</svg>