<?xml version="1.0" encoding="UTF-8"?>
<svg viewBox="244 522 1901 1367" width="512" height="512" xmlns="http://www.w3.org/2000/svg">
  <circle cx="1710" cy="877" r="52" fill="#000000" />
  <circle cx="1334" cy="1334" r="51" fill="#000000" />
  <circle cx="757" cy="1155" r="51" fill="#000000" />
  <circle cx="1529" cy="626" r="51" fill="#000000" />
  <circle cx="1511" cy="1724" r="50" fill="#000000" />
  <circle cx="764" cy="1711" r="50" fill="#000000" />
  <circle cx="1539" cy="1558" r="50" fill="#000000" />
  <circle cx="678" cy="1421" r="50" fill="#000000" />
  <circle cx="2075" cy="1184" r="50" fill="#000000" />
  <circle cx="613" cy="1090" r="50" fill="#000000" />
  <circle cx="1811" cy="1204" r="49" fill="#000000" />
  <circle cx="1182" cy="1806" r="48" fill="#000000" />
  <circle cx="1094" cy="969" r="48" fill="#000000" />
  <circle cx="1012" cy="811" r="46" fill="#000000" />
  <circle cx="1339" cy="1775" r="45" fill="#000000" />
  <circle cx="1466" cy="1418" r="45" fill="#000000" />
  <circle cx="806" cy="1246" r="45" fill="#000000" />
  <circle cx="652" cy="1612" r="44" fill="#000000" />
  <circle cx="1231" cy="1259" r="44" fill="#000000" />
  <circle cx="377" cy="1160" r="44" fill="#000000" />
  <circle cx="1071" cy="725" r="44" fill="#000000" />
  <circle cx="1428" cy="597" r="44" fill="#000000" />
  <circle cx="1648" cy="730" r="43" fill="#000000" />
  <circle cx="1060" cy="1821" r="42" fill="#000000" />
  <circle cx="1690" cy="974" r="42" fill="#000000" />
  <circle cx="1193" cy="1102" r="41" fill="#000000" />
  <circle cx="860" cy="1749" r="39" fill="#000000" />
  <circle cx="1924" cy="1223" r="39" fill="#000000" />
  <circle cx="1578" cy="1654" r="38" fill="#000000" />
  <circle cx="515" cy="1129" r="38" fill="#000000" />
  <circle cx="940" cy="1763" r="36" fill="#000000" />
  <circle cx="586" cy="1552" r="36" fill="#000000" />
  <circle cx="658" cy="1519" r="36" fill="#000000" />
  <circle cx="1423" cy="1751" r="35" fill="#000000" />
  <circle cx="787" cy="1334" r="35" fill="#000000" />
  <circle cx="1128" cy="1048" r="34" fill="#000000" />
  <circle cx="595" cy="1468" r="33" fill="#000000" />
  <circle cx="1730" cy="775" r="33" fill="#000000" />
  <circle cx="1252" cy="600" r="33" fill="#000000" />
  <circle cx="1273" cy="1827" r="32" fill="#000000" />
  <circle cx="2006" cy="1243" r="32" fill="#000000" />
  <circle cx="1228" cy="1172" r="32" fill="#000000" />
  <circle cx="1383" cy="1408" r="31" fill="#000000" />
  <circle cx="297" cy="1201" r="31" fill="#000000" />
  <circle cx="1724" cy="1198" r="31" fill="#000000" />
  <circle cx="295" cy="1132" r="31" fill="#000000" />
  <circle cx="1057" cy="882" r="31" fill="#000000" />
  <circle cx="1617" cy="653" r="31" fill="#000000" />
  <circle cx="1336" cy="622" r="31" fill="#000000" />
  <circle cx="1178" cy="614" r="31" fill="#000000" />
  <circle cx="453" cy="1176" r="30" fill="#000000" />
  <circle cx="1985" cy="1176" r="30" fill="#000000" />
  <circle cx="1155" cy="677" r="30" fill="#000000" />
  <circle cx="977" cy="1828" r="29" fill="#000000" />
  <circle cx="767" cy="1407" r="29" fill="#000000" />
  <circle cx="1417" cy="1343" r="29" fill="#000000" />
  <circle cx="1722" cy="1076" r="29" fill="#000000" />
  <circle cx="1487" cy="1493" r="28" fill="#000000" />
  <circle cx="1544" cy="1466" r="28" fill="#000000" />
  <circle cx="1406" cy="1822" r="27" fill="#000000" />
  <circle cx="442" cy="1110" r="27" fill="#000000" />
  <circle cx="699" cy="1088" r="27" fill="#000000" />
  <circle cx="1009" cy="1764" r="26" fill="#000000" />
  <circle cx="680" cy="1684" r="26" fill="#000000" />
  <circle cx="671" cy="1153" r="26" fill="#000000" />
  <circle cx="1705" cy="1137" r="26" fill="#000000" />
  <circle cx="1666" cy="1048" r="26" fill="#000000" />
  <circle cx="1110" cy="1771" r="25" fill="#000000" />
  <circle cx="726" cy="1633" r="25" fill="#000000" />
  <circle cx="1258" cy="1761" r="24" fill="#000000" />
  <circle cx="1169" cy="992" r="24" fill="#000000" />
  <circle cx="1021" cy="934" r="24" fill="#000000" />
  <circle cx="990" cy="880" r="24" fill="#000000" />
  <circle cx="1722" cy="712" r="24" fill="#000000" />
  <circle cx="1575" cy="699" r="24" fill="#000000" />
  <circle cx="1112" cy="633" r="24" fill="#000000" />
  <circle cx="1332" cy="1846" r="23" fill="#000000" />
  <circle cx="1472" cy="1795" r="23" fill="#000000" />
  <circle cx="1671" cy="797" r="23" fill="#000000" />
  <circle cx="1166" cy="1178" r="22" fill="#000000" />
  <circle cx="1217" cy="658" r="22" fill="#000000" />
  <circle cx="1363" cy="563" r="21" fill="#000000" />
  <circle cx="730" cy="1357" r="20" fill="#000000" />
  <circle cx="1253" cy="1323" r="20" fill="#000000" />
  <circle cx="1311" cy="571" r="20" fill="#000000" />
  <circle cx="920" cy="1824" r="19" fill="#000000" />
  <circle cx="820" cy="1387" r="19" fill="#000000" />
  <circle cx="1661" cy="1102" r="19" fill="#000000" />
  <circle cx="1199" cy="1033" r="19" fill="#000000" />
  <circle cx="1458" cy="663" r="19" fill="#000000" />
  <circle cx="508" cy="1198" r="18" fill="#000000" />
  <circle cx="1513" cy="1640" r="17" fill="#000000" />
  <circle cx="1671" cy="666" r="17" fill="#000000" />
  <circle cx="1754" cy="1155" r="16" fill="#000000" />
  <circle cx="844" cy="1339" r="15" fill="#000000" />
  <circle cx="850" cy="1299" r="15" fill="#000000" />
  <circle cx="1296" cy="1268" r="15" fill="#000000" />
  <circle cx="1172" cy="1226" r="15" fill="#000000" />
  <circle cx="801" cy="1776" r="14" fill="#000000" />
  <circle cx="1286" cy="648" r="14" fill="#000000" />
  <circle cx="1077" cy="832" r="13" fill="#000000" />
  <circle cx="1123" cy="1842" r="12" fill="#000000" />
  <circle cx="820" cy="1188" r="12" fill="#000000" />
  <circle cx="1110" cy="679" r="12" fill="#000000" />
  <circle cx="898" cy="1792" r="10" fill="#000000" />
  <circle cx="1010" cy="751" r="10" fill="#000000" />
  <circle cx="547" cy="1080" r="9" fill="#000000" />
</svg>