<?xml version="1.0" encoding="UTF-8"?>
<svg viewBox="230 536 1916 1343" width="512" height="512" xmlns="http://www.w3.org/2000/svg">
  <circle cx="1068" cy="1809" r="50" fill="#000000" />
  <circle cx="1727" cy="1459" r="50" fill="#000000" />
  <circle cx="701" cy="1439" r="50" fill="#000000" />
  <circle cx="2015" cy="1122" r="50" fill="#000000" />
  <circle cx="1489" cy="851" r="50" fill="#000000" />
  <circle cx="758" cy="1680" r="49" fill="#000000" />
  <circle cx="1591" cy="1655" r="49" fill="#000000" />
  <circle cx="462" cy="1183" r="49" fill="#000000" />
  <circle cx="1382" cy="654" r="49" fill="#000000" />
  <circle cx="1284" cy="1659" r="48" fill="#000000" />
  <circle cx="1210" cy="1205" r="48" fill="#000000" />
  <circle cx="1432" cy="1100" r="48" fill="#000000" />
  <circle cx="1049" cy="635" r="48" fill="#000000" />
  <circle cx="649" cy="1127" r="47" fill="#000000" />
  <circle cx="848" cy="760" r="47" fill="#000000" />
  <circle cx="967" cy="1288" r="46" fill="#000000" />
  <circle cx="1718" cy="1559" r="45" fill="#000000" />
  <circle cx="695" cy="1601" r="44" fill="#000000" />
  <circle cx="1106" cy="1210" r="44" fill="#000000" />
  <circle cx="886" cy="1772" r="43" fill="#000000" />
  <circle cx="1689" cy="1226" r="43" fill="#000000" />
  <circle cx="358" cy="1171" r="43" fill="#000000" />
  <circle cx="826" cy="862" r="43" fill="#000000" />
  <circle cx="975" cy="1771" r="42" fill="#000000" />
  <circle cx="833" cy="1339" r="42" fill="#000000" />
  <circle cx="1598" cy="758" r="41" fill="#000000" />
  <circle cx="946" cy="641" r="41" fill="#000000" />
  <circle cx="1203" cy="1730" r="40" fill="#000000" />
  <circle cx="1784" cy="1132" r="40" fill="#000000" />
  <circle cx="1923" cy="1094" r="40" fill="#000000" />
  <circle cx="1497" cy="1017" r="40" fill="#000000" />
  <circle cx="1279" cy="644" r="40" fill="#000000" />
  <circle cx="1172" cy="1811" r="39" fill="#000000" />
  <circle cx="1543" cy="682" r="39" fill="#000000" />
  <circle cx="1687" cy="1647" r="38" fill="#000000" />
  <circle cx="1430" cy="1623" r="38" fill="#000000" />
  <circle cx="775" cy="1000" r="38" fill="#000000" />
  <circle cx="1452" cy="707" r="38" fill="#000000" />
  <circle cx="1192" cy="643" r="36" fill="#000000" />
  <circle cx="744" cy="1359" r="35" fill="#000000" />
  <circle cx="1521" cy="945" r="35" fill="#000000" />
  <circle cx="1704" cy="1365" r="34" fill="#000000" />
  <circle cx="1310" cy="1204" r="34" fill="#000000" />
  <circle cx="1494" cy="1668" r="33" fill="#000000" />
  <circle cx="1355" cy="1599" r="33" fill="#000000" />
  <circle cx="658" cy="1524" r="33" fill="#000000" />
  <circle cx="556" cy="1186" r="33" fill="#000000" />
  <circle cx="2093" cy="1178" r="33" fill="#000000" />
  <circle cx="1472" cy="644" r="33" fill="#000000" />
  <circle cx="1391" cy="1182" r="32" fill="#000000" />
  <circle cx="1447" cy="958" r="32" fill="#000000" />
  <circle cx="292" cy="1123" r="31" fill="#000000" />
  <circle cx="846" cy="1698" r="30" fill="#000000" />
  <circle cx="1046" cy="1257" r="30" fill="#000000" />
  <circle cx="843" cy="962" r="30" fill="#000000" />
  <circle cx="913" cy="1358" r="29" fill="#000000" />
  <circle cx="279" cy="1199" r="29" fill="#000000" />
  <circle cx="775" cy="1084" r="29" fill="#000000" />
  <circle cx="931" cy="720" r="29" fill="#000000" />
  <circle cx="807" cy="1750" r="28" fill="#000000" />
  <circle cx="1372" cy="1668" r="28" fill="#000000" />
  <circle cx="1861" cy="1144" r="28" fill="#000000" />
  <circle cx="1771" cy="1214" r="27" fill="#000000" />
  <circle cx="566" cy="1111" r="27" fill="#000000" />
  <circle cx="1846" cy="1081" r="27" fill="#000000" />
  <circle cx="1343" cy="1136" r="26" fill="#000000" />
  <circle cx="785" cy="928" r="26" fill="#000000" />
  <circle cx="1496" cy="776" r="26" fill="#000000" />
  <circle cx="1128" cy="672" r="26" fill="#000000" />
  <circle cx="1125" cy="602" r="26" fill="#000000" />
  <circle cx="884" cy="1285" r="25" fill="#000000" />
  <circle cx="2097" cy="1110" r="25" fill="#000000" />
  <circle cx="1647" cy="1589" r="24" fill="#000000" />
  <circle cx="720" cy="1520" r="24" fill="#000000" />
  <circle cx="1700" cy="1301" r="24" fill="#000000" />
  <circle cx="1031" cy="1194" r="24" fill="#000000" />
  <circle cx="993" cy="709" r="24" fill="#000000" />
  <circle cx="1323" cy="585" r="24" fill="#000000" />
  <circle cx="1752" cy="1269" r="23" fill="#000000" />
  <circle cx="882" cy="689" r="23" fill="#000000" />
  <circle cx="936" cy="1830" r="22" fill="#000000" />
  <circle cx="1492" cy="1595" r="22" fill="#000000" />
  <circle cx="1544" cy="792" r="22" fill="#000000" />
  <circle cx="1783" cy="1519" r="21" fill="#000000" />
  <circle cx="789" cy="1405" r="21" fill="#000000" />
  <circle cx="673" cy="1055" r="21" fill="#000000" />
  <circle cx="1562" cy="843" r="20" fill="#000000" />
  <circle cx="1723" cy="1165" r="19" fill="#000000" />
  <circle cx="720" cy="1097" r="19" fill="#000000" />
  <circle cx="1430" cy="1015" r="19" fill="#000000" />
  <circle cx="1213" cy="575" r="19" fill="#000000" />
  <circle cx="1133" cy="1759" r="18" fill="#000000" />
  <circle cx="1754" cy="1322" r="18" fill="#000000" />
  <circle cx="1281" cy="1146" r="18" fill="#000000" />
  <circle cx="738" cy="1131" r="18" fill="#000000" />
  <circle cx="722" cy="1043" r="18" fill="#000000" />
  <circle cx="1264" cy="589" r="18" fill="#000000" />
  <circle cx="987" cy="1837" r="17" fill="#000000" />
  <circle cx="1265" cy="1735" r="17" fill="#000000" />
  <circle cx="1745" cy="1621" r="17" fill="#000000" />
  <circle cx="1825" cy="1181" r="17" fill="#000000" />
  <circle cx="1975" cy="1057" r="17" fill="#000000" />
  <circle cx="763" cy="884" r="17" fill="#000000" />
  <circle cx="1404" cy="1568" r="16" fill="#000000" />
  <circle cx="1908" cy="1155" r="16" fill="#000000" />
  <circle cx="789" cy="813" r="16" fill="#000000" />
  <circle cx="1228" cy="1786" r="15" fill="#000000" />
  <circle cx="526" cy="1139" r="15" fill="#000000" />
  <circle cx="403" cy="1124" r="15" fill="#000000" />
  <circle cx="760" cy="1602" r="14" fill="#000000" />
  <circle cx="614" cy="1197" r="14" fill="#000000" />
  <circle cx="840" cy="1014" r="14" fill="#000000" />
  <circle cx="1537" cy="752" r="14" fill="#000000" />
  <circle cx="1677" cy="1504" r="13" fill="#000000" />
  <circle cx="1095" cy="1280" r="13" fill="#000000" />
  <circle cx="817" cy="1055" r="13" fill="#000000" />
  <circle cx="1435" cy="905" r="13" fill="#000000" />
  <circle cx="1000" cy="1227" r="12" fill="#000000" />
  <circle cx="1753" cy="1386" r="10" fill="#000000" />
</svg>