<?xml version="1.0" encoding="UTF-8"?>
<svg viewBox="477 785 1489 625" width="512" height="512" xmlns="http://www.w3.org/2000/svg">
  <circle cx="675" cy="1295" r="51" fill="#000000" />
  <circle cx="1540" cy="1267" r="50" fill="#000000" />
  <circle cx="1786" cy="1013" r="49" fill="#000000" />
  <circle cx="978" cy="1118" r="48" fill="#000000" />
  <circle cx="904" cy="1020" r="42" fill="#000000" />
  <circle cx="1607" cy="965" r="41" fill="#000000" />
  <circle cx="1685" cy="1009" r="36" fill="#000000" />
  <circle cx="1449" cy="1237" r="35" fill="#000000" />
  <circle cx="587" cy="1255" r="34" fill="#000000" />
  <circle cx="1877" cy="1020" r="33" fill="#000000" />
  <circle cx="906" cy="929" r="31" fill="#000000" />
  <circle cx="1628" cy="1277" r="28" fill="#000000" />
  <circle cx="1374" cy="1245" r="26" fill="#000000" />
  <circle cx="1057" cy="1144" r="26" fill="#000000" />
  <circle cx="1726" cy="963" r="26" fill="#000000" />
  <circle cx="1642" cy="1339" r="25" fill="#000000" />
  <circle cx="1504" cy="1191" r="24" fill="#000000" />
  <circle cx="972" cy="1043" r="24" fill="#000000" />
  <circle cx="1452" cy="1177" r="23" fill="#000000" />
  <circle cx="1563" cy="895" r="23" fill="#000000" />
  <circle cx="519" cy="1242" r="22" fill="#000000" />
  <circle cx="660" cy="1369" r="21" fill="#000000" />
  <circle cx="970" cy="985" r="21" fill="#000000" />
  <circle cx="899" cy="862" r="21" fill="#000000" />
  <circle cx="1598" cy="1321" r="20" fill="#000000" />
  <circle cx="647" cy="1220" r="20" fill="#000000" />
  <circle cx="885" cy="825" r="20" fill="#000000" />
  <circle cx="1610" cy="1230" r="19" fill="#000000" />
  <circle cx="911" cy="1081" r="18" fill="#000000" />
  <circle cx="1675" cy="949" r="17" fill="#000000" />
  <circle cx="1110" cy="1143" r="16" fill="#000000" />
  <circle cx="1932" cy="1034" r="14" fill="#000000" />
  <circle cx="1724" cy="1059" r="12" fill="#000000" />
</svg>