<svg xmlns="http://www.w3.org/2000/svg" viewBox="0 0 500 500" width="500" height="500" style="background:white">
  <circle cx="271.7" cy="45.5" r="12.0" fill="black"/>
  <circle cx="357.0" cy="300.6" r="11.6" fill="black"/>
  <circle cx="256.0" cy="376.1" r="11.3" fill="black"/>
  <circle cx="330.2" cy="349.6" r="11.3" fill="black"/>
  <circle cx="344.0" cy="250.0" r="11.3" fill="black"/>
  <circle cx="40.0" cy="228.1" r="11.3" fill="black"/>
  <circle cx="222.0" cy="285.1" r="11.1" fill="black"/>
  <circle cx="444.1" cy="217.9" r="11.1" fill="black"/>
  <circle cx="147.7" cy="181.6" r="11.1" fill="black"/>
  <circle cx="173.1" cy="100.3" r="11.1" fill="black"/>
  <circle cx="334.1" cy="76.5" r="11.1" fill="black"/>
  <circle cx="240.5" cy="223.4" r="10.9" fill="black"/>
  <circle cx="402.7" cy="211.2" r="10.9" fill="black"/>
  <circle cx="345.0" cy="129.6" r="10.9" fill="black"/>
  <circle cx="104.2" cy="226.9" r="10.6" fill="black"/>
  <circle cx="168.4" cy="345.0" r="10.4" fill="black"/>
  <circle cx="352.3" cy="92.9" r="10.2" fill="black"/>
  <circle cx="305.2" cy="165.0" r="9.9" fill="black"/>
  <circle cx="299.4" cy="369.4" r="9.7" fill="black"/>
  <circle cx="354.0" cy="230.1" r="9.7" fill="black"/>
  <circle cx="80.9" cy="225.0" r="9.7" fill="black"/>
  <circle cx="205.0" cy="74.4" r="9.7" fill="black"/>
  <circle cx="296.2" cy="54.6" r="9.7" fill="black"/>
  <circle cx="247.0" cy="43.0" r="9.7" fill="black"/>
  <circle cx="160.4" cy="322.1" r="9.5" fill="black"/>
  <circle cx="236.8" cy="248.6" r="9.5" fill="black"/>
  <circle cx="256.5" cy="192.5" r="9.5" fill="black"/>
  <circle cx="142.8" cy="151.8" r="9.5" fill="black"/>
  <circle cx="197.3" cy="361.1" r="9.0" fill="black"/>
  <circle cx="233.1" cy="376.4" r="8.8" fill="black"/>
  <circle cx="278.4" cy="370.6" r="8.8" fill="black"/>
  <circle cx="133.1" cy="217.7" r="8.8" fill="black"/>
  <circle cx="268.3" cy="175.4" r="8.8" fill="black"/>
  <circle cx="189.0" cy="304.3" r="8.5" fill="black"/>
  <circle cx="345.6" cy="273.6" r="8.5" fill="black"/>
  <circle cx="217.7" cy="362.3" r="8.3" fill="black"/>
  <circle cx="339.9" cy="329.0" r="8.1" fill="black"/>
  <circle cx="223.4" cy="65.2" r="8.1" fill="black"/>
  <circle cx="208.0" cy="302.7" r="7.9" fill="black"/>
  <circle cx="364.6" cy="279.3" r="7.9" fill="black"/>
  <circle cx="380.8" cy="212.1" r="7.9" fill="black"/>
  <circle cx="140.3" cy="131.7" r="7.9" fill="black"/>
  <circle cx="423.3" cy="218.6" r="7.6" fill="black"/>
  <circle cx="288.8" cy="175.6" r="7.6" fill="black"/>
  <circle cx="335.2" cy="149.0" r="7.6" fill="black"/>
  <circle cx="186.2" cy="83.9" r="7.6" fill="black"/>
  <circle cx="318.4" cy="366.7" r="7.4" fill="black"/>
  <circle cx="171.0" cy="305.0" r="7.4" fill="black"/>
  <circle cx="239.4" cy="270.6" r="7.4" fill="black"/>
  <circle cx="62.2" cy="230.4" r="7.4" fill="black"/>
  <circle cx="240.3" cy="202.9" r="7.4" fill="black"/>
  <circle cx="314.9" cy="67.3" r="7.4" fill="black"/>
  <circle cx="158.7" cy="116.7" r="7.2" fill="black"/>
  <circle cx="229.0" cy="47.2" r="7.2" fill="black"/>
  <circle cx="326.5" cy="163.1" r="6.9" fill="black"/>
  <circle cx="340.3" cy="109.3" r="6.9" fill="black"/>
  <circle cx="179.8" cy="360.2" r="6.5" fill="black"/>
  <circle cx="148.1" cy="203.1" r="6.2" fill="black"/>
  <circle cx="358.6" cy="264.3" r="6.0" fill="black"/>
  <circle cx="315.1" cy="50.9" r="6.0" fill="black"/>
  <circle cx="310.5" cy="352.1" r="5.8" fill="black"/>
  <circle cx="135.0" cy="198.7" r="5.8" fill="black"/>
  <circle cx="355.3" cy="113.0" r="5.8" fill="black"/>
  <circle cx="343.1" cy="313.3" r="5.5" fill="black"/>
  <circle cx="337.1" cy="232.0" r="5.5" fill="black"/>
  <circle cx="372.2" cy="225.0" r="5.5" fill="black"/>
  <circle cx="278.6" cy="163.4" r="5.5" fill="black"/>
  <circle cx="318.8" cy="149.0" r="5.5" fill="black"/>
  <circle cx="156.4" cy="130.6" r="5.5" fill="black"/>
  <circle cx="144.7" cy="116.5" r="5.5" fill="black"/>
  <circle cx="201.3" cy="289.0" r="5.3" fill="black"/>
  <circle cx="153.7" cy="164.8" r="5.3" fill="black"/>
  <circle cx="187.2" cy="345.9" r="5.1" fill="black"/>
  <circle cx="345.6" cy="341.9" r="5.1" fill="black"/>
  <circle cx="363.9" cy="318.4" r="5.1" fill="black"/>
  <circle cx="365.0" cy="214.0" r="5.1" fill="black"/>
  <circle cx="335.0" cy="95.7" r="5.1" fill="black"/>
  <circle cx="122.7" cy="229.9" r="4.9" fill="black"/>
  <circle cx="420.3" cy="203.8" r="4.9" fill="black"/>
  <circle cx="238.9" cy="57.6" r="4.9" fill="black"/>
  <circle cx="217.9" cy="378.4" r="4.6" fill="black"/>
  <circle cx="354.2" cy="331.1" r="4.6" fill="black"/>
  <circle cx="457.5" cy="230.8" r="4.6" fill="black"/>
  <circle cx="153.0" cy="336.6" r="4.4" fill="black"/>
  <circle cx="353.3" cy="319.3" r="4.4" fill="black"/>
  <circle cx="175.8" cy="318.2" r="4.4" fill="black"/>
  <circle cx="221.8" cy="268.0" r="4.4" fill="black"/>
  <circle cx="253.5" cy="208.9" r="4.4" fill="black"/>
  <circle cx="138.4" cy="166.6" r="4.4" fill="black"/>
  <circle cx="198.5" cy="90.1" r="4.4" fill="black"/>
  <circle cx="390.2" cy="223.2" r="4.2" fill="black"/>
  <circle cx="430.9" cy="206.6" r="4.2" fill="black"/>
  <circle cx="213.7" cy="53.4" r="4.2" fill="black"/>
  <circle cx="243.3" cy="363.9" r="3.9" fill="black"/>
  <circle cx="460.0" cy="211.2" r="3.9" fill="black"/>
  <circle cx="154.8" cy="102.1" r="3.9" fill="black"/>
  <circle cx="289.0" cy="40.0" r="3.9" fill="black"/>
  <circle cx="287.9" cy="381.5" r="3.7" fill="black"/>
  <circle cx="205.9" cy="373.6" r="3.7" fill="black"/>
  <circle cx="174.2" cy="329.9" r="3.7" fill="black"/>
  <circle cx="345.4" cy="288.1" r="3.7" fill="black"/>
  <circle cx="222.3" cy="251.8" r="3.7" fill="black"/>
  <circle cx="66.3" cy="217.2" r="3.7" fill="black"/>
  <circle cx="324.2" cy="139.1" r="3.7" fill="black"/>
  <circle cx="178.2" cy="295.0" r="3.5" fill="black"/>
  <circle cx="189.9" cy="289.5" r="3.5" fill="black"/>
  <circle cx="55.5" cy="216.7" r="3.5" fill="black"/>
  <circle cx="352.1" cy="214.0" r="3.5" fill="black"/>
  <circle cx="273.6" cy="189.5" r="3.5" fill="black"/>
  <circle cx="290.4" cy="159.4" r="3.5" fill="black"/>
  <circle cx="325.5" cy="59.2" r="3.5" fill="black"/>
  <circle cx="272.6" cy="383.3" r="3.2" fill="black"/>
  <circle cx="229.4" cy="261.3" r="3.2" fill="black"/>
  <circle cx="250.5" cy="238.7" r="3.2" fill="black"/>
  <circle cx="118.8" cy="216.5" r="3.2" fill="black"/>
  <circle cx="256.9" cy="55.0" r="3.2" fill="black"/>
  <circle cx="229.0" cy="235.4" r="3.0" fill="black"/>
  <circle cx="189.2" cy="97.1" r="3.0" fill="black"/>
  <circle cx="280.5" cy="182.8" r="2.8" fill="black"/>
  <circle cx="208.6" cy="59.9" r="2.5" fill="black"/>
  <circle cx="231.7" cy="363.2" r="2.3" fill="black"/>
  <circle cx="151.6" cy="138.2" r="2.3" fill="black"/>
  <circle cx="146.7" cy="213.0" r="1.8" fill="black"/>
</svg>