<svg xmlns="http://www.w3.org/2000/svg" viewBox="0 0 500 500" width="500" height="500" style="background:white">
  <circle cx="266.4" cy="307.6" r="11.1" fill="black"/>
  <circle cx="96.7" cy="217.3" r="11.1" fill="black"/>
  <circle cx="422.4" cy="228.1" r="10.8" fill="black"/>
  <circle cx="197.9" cy="301.2" r="10.4" fill="black"/>
  <circle cx="110.8" cy="247.7" r="10.4" fill="black"/>
  <circle cx="368.5" cy="246.5" r="10.4" fill="black"/>
  <circle cx="331.8" cy="224.9" r="10.4" fill="black"/>
  <circle cx="267.7" cy="164.2" r="10.4" fill="black"/>
  <circle cx="241.2" cy="238.2" r="10.1" fill="black"/>
  <circle cx="321.5" cy="175.5" r="10.1" fill="black"/>
  <circle cx="137.7" cy="279.0" r="9.9" fill="black"/>
  <circle cx="244.5" cy="317.8" r="9.7" fill="black"/>
  <circle cx="341.5" cy="246.3" r="9.7" fill="black"/>
  <circle cx="159.6" cy="285.5" r="9.5" fill="black"/>
  <circle cx="226.5" cy="221.0" r="9.5" fill="black"/>
  <circle cx="265.7" cy="263.1" r="9.2" fill="black"/>
  <circle cx="40.0" cy="192.6" r="9.2" fill="black"/>
  <circle cx="337.8" cy="191.7" r="9.2" fill="black"/>
  <circle cx="291.3" cy="166.1" r="9.2" fill="black"/>
  <circle cx="223.7" cy="324.7" r="9.0" fill="black"/>
  <circle cx="442.7" cy="198.8" r="9.0" fill="black"/>
  <circle cx="234.1" cy="184.3" r="9.0" fill="black"/>
  <circle cx="268.9" cy="281.6" r="8.8" fill="black"/>
  <circle cx="400.8" cy="233.6" r="8.5" fill="black"/>
  <circle cx="61.9" cy="195.4" r="8.5" fill="black"/>
  <circle cx="114.7" cy="229.3" r="8.1" fill="black"/>
  <circle cx="176.7" cy="295.0" r="7.8" fill="black"/>
  <circle cx="76.4" cy="208.7" r="7.8" fill="black"/>
  <circle cx="248.6" cy="258.5" r="7.6" fill="black"/>
  <circle cx="226.7" cy="201.1" r="7.6" fill="black"/>
  <circle cx="217.3" cy="306.9" r="7.4" fill="black"/>
  <circle cx="249.1" cy="171.9" r="7.4" fill="black"/>
  <circle cx="124.4" cy="264.1" r="6.7" fill="black"/>
  <circle cx="443.2" cy="218.0" r="6.7" fill="black"/>
  <circle cx="207.1" cy="317.8" r="6.2" fill="black"/>
  <circle cx="281.4" cy="295.9" r="6.0" fill="black"/>
  <circle cx="383.7" cy="236.2" r="6.0" fill="black"/>
  <circle cx="326.8" cy="205.5" r="6.0" fill="black"/>
  <circle cx="457.9" cy="190.3" r="6.0" fill="black"/>
  <circle cx="234.8" cy="167.2" r="5.8" fill="black"/>
  <circle cx="176.5" cy="278.8" r="5.5" fill="black"/>
  <circle cx="395.9" cy="250.0" r="5.5" fill="black"/>
  <circle cx="257.4" cy="247.5" r="5.5" fill="black"/>
  <circle cx="429.8" cy="210.6" r="5.5" fill="black"/>
  <circle cx="321.0" cy="192.4" r="5.5" fill="black"/>
  <circle cx="309.5" cy="161.9" r="5.5" fill="black"/>
  <circle cx="339.9" cy="208.3" r="5.3" fill="black"/>
  <circle cx="281.6" cy="276.0" r="5.1" fill="black"/>
  <circle cx="77.3" cy="194.7" r="5.1" fill="black"/>
  <circle cx="121.1" cy="277.4" r="4.8" fill="black"/>
  <circle cx="353.5" cy="258.3" r="4.8" fill="black"/>
  <circle cx="238.7" cy="209.2" r="4.8" fill="black"/>
  <circle cx="457.9" cy="204.6" r="4.8" fill="black"/>
  <circle cx="453.8" cy="166.6" r="4.8" fill="black"/>
  <circle cx="384.6" cy="254.4" r="4.6" fill="black"/>
  <circle cx="231.3" cy="309.7" r="4.4" fill="black"/>
  <circle cx="101.3" cy="234.3" r="4.4" fill="black"/>
  <circle cx="347.7" cy="230.4" r="4.4" fill="black"/>
  <circle cx="240.5" cy="197.9" r="4.4" fill="black"/>
  <circle cx="188.2" cy="287.1" r="4.1" fill="black"/>
  <circle cx="326.3" cy="242.6" r="4.1" fill="black"/>
  <circle cx="412.7" cy="242.2" r="4.1" fill="black"/>
  <circle cx="354.9" cy="238.5" r="4.1" fill="black"/>
  <circle cx="241.5" cy="221.9" r="4.1" fill="black"/>
  <circle cx="49.5" cy="203.7" r="4.1" fill="black"/>
  <circle cx="89.1" cy="201.8" r="4.1" fill="black"/>
  <circle cx="304.9" cy="173.9" r="4.1" fill="black"/>
  <circle cx="243.1" cy="160.1" r="4.1" fill="black"/>
  <circle cx="252.8" cy="157.3" r="3.9" fill="black"/>
  <circle cx="110.3" cy="263.8" r="3.7" fill="black"/>
  <circle cx="305.3" cy="128.7" r="3.7" fill="black"/>
  <circle cx="225.3" cy="174.4" r="3.0" fill="black"/>
  <circle cx="222.3" cy="189.8" r="2.8" fill="black"/>
  <circle cx="188.5" cy="128.3" r="2.8" fill="black"/>
  <circle cx="127.6" cy="253.5" r="2.5" fill="black"/>
  <circle cx="386.2" cy="244.5" r="2.5" fill="black"/>
</svg>