<svg xmlns="http://www.w3.org/2000/svg" viewBox="0 0 500 500" width="500" height="500" style="background:white">
  <circle cx="212.2" cy="212.9" r="11.5" fill="black"/>
  <circle cx="139.3" cy="195.2" r="11.5" fill="black"/>
  <circle cx="271.0" cy="350.8" r="11.3" fill="black"/>
  <circle cx="156.6" cy="281.4" r="11.0" fill="black"/>
  <circle cx="194.5" cy="344.4" r="10.8" fill="black"/>
  <circle cx="285.1" cy="283.4" r="10.8" fill="black"/>
  <circle cx="81.4" cy="225.5" r="10.8" fill="black"/>
  <circle cx="165.5" cy="258.2" r="10.6" fill="black"/>
  <circle cx="360.5" cy="235.2" r="10.6" fill="black"/>
  <circle cx="431.7" cy="236.1" r="10.1" fill="black"/>
  <circle cx="285.1" cy="333.3" r="9.9" fill="black"/>
  <circle cx="175.2" cy="200.7" r="9.7" fill="black"/>
  <circle cx="215.9" cy="354.0" r="9.4" fill="black"/>
  <circle cx="206.7" cy="235.6" r="9.2" fill="black"/>
  <circle cx="381.1" cy="224.6" r="9.2" fill="black"/>
  <circle cx="59.1" cy="215.9" r="9.2" fill="black"/>
  <circle cx="250.6" cy="344.8" r="9.0" fill="black"/>
  <circle cx="176.8" cy="331.0" r="8.7" fill="black"/>
  <circle cx="160.9" cy="319.5" r="8.7" fill="black"/>
  <circle cx="149.4" cy="301.4" r="8.7" fill="black"/>
  <circle cx="411.5" cy="232.9" r="8.7" fill="black"/>
  <circle cx="120.0" cy="206.2" r="8.7" fill="black"/>
  <circle cx="40.0" cy="218.6" r="8.5" fill="black"/>
  <circle cx="340.2" cy="247.1" r="8.3" fill="black"/>
  <circle cx="295.2" cy="261.4" r="8.0" fill="black"/>
  <circle cx="161.4" cy="187.4" r="7.8" fill="black"/>
  <circle cx="160.2" cy="339.1" r="7.6" fill="black"/>
  <circle cx="289.0" cy="305.3" r="7.6" fill="black"/>
  <circle cx="185.5" cy="257.0" r="7.6" fill="black"/>
  <circle cx="235.6" cy="357.0" r="7.4" fill="black"/>
  <circle cx="136.8" cy="287.4" r="7.4" fill="black"/>
  <circle cx="209.4" cy="254.0" r="7.4" fill="black"/>
  <circle cx="310.1" cy="248.7" r="7.4" fill="black"/>
  <circle cx="325.5" cy="257.5" r="7.1" fill="black"/>
  <circle cx="394.0" cy="237.7" r="7.1" fill="black"/>
  <circle cx="222.5" cy="228.3" r="7.1" fill="black"/>
  <circle cx="157.5" cy="203.2" r="7.1" fill="black"/>
  <circle cx="300.2" cy="319.1" r="6.9" fill="black"/>
  <circle cx="101.6" cy="223.0" r="6.9" fill="black"/>
  <circle cx="103.2" cy="206.7" r="6.7" fill="black"/>
  <circle cx="252.9" cy="360.7" r="6.2" fill="black"/>
  <circle cx="174.9" cy="346.7" r="6.0" fill="black"/>
  <circle cx="231.7" cy="342.8" r="6.0" fill="black"/>
  <circle cx="49.7" cy="230.1" r="6.0" fill="black"/>
  <circle cx="178.2" cy="245.5" r="5.5" fill="black"/>
  <circle cx="144.1" cy="318.6" r="5.3" fill="black"/>
  <circle cx="146.4" cy="264.4" r="5.3" fill="black"/>
  <circle cx="194.5" cy="246.4" r="5.3" fill="black"/>
  <circle cx="221.4" cy="244.6" r="5.3" fill="black"/>
  <circle cx="325.1" cy="243.2" r="5.3" fill="black"/>
  <circle cx="300.7" cy="335.4" r="5.1" fill="black"/>
  <circle cx="280.5" cy="266.0" r="5.1" fill="black"/>
  <circle cx="311.3" cy="262.8" r="5.1" fill="black"/>
  <circle cx="353.8" cy="251.7" r="5.1" fill="black"/>
  <circle cx="176.1" cy="183.2" r="5.1" fill="black"/>
  <circle cx="210.8" cy="338.6" r="4.8" fill="black"/>
  <circle cx="377.9" cy="239.5" r="4.8" fill="black"/>
  <circle cx="64.1" cy="230.1" r="4.8" fill="black"/>
  <circle cx="288.0" cy="348.5" r="4.4" fill="black"/>
  <circle cx="302.3" cy="305.3" r="4.4" fill="black"/>
  <circle cx="419.1" cy="245.7" r="4.4" fill="black"/>
  <circle cx="448.0" cy="237.2" r="4.4" fill="black"/>
  <circle cx="133.8" cy="211.5" r="4.1" fill="black"/>
  <circle cx="199.1" cy="223.9" r="3.9" fill="black"/>
  <circle cx="114.0" cy="217.9" r="3.9" fill="black"/>
  <circle cx="149.9" cy="329.0" r="3.7" fill="black"/>
  <circle cx="141.1" cy="273.8" r="3.7" fill="black"/>
  <circle cx="299.3" cy="273.6" r="3.7" fill="black"/>
  <circle cx="405.1" cy="245.1" r="3.7" fill="black"/>
  <circle cx="337.7" cy="260.0" r="3.2" fill="black"/>
</svg>