<svg xmlns="http://www.w3.org/2000/svg" viewBox="0 0 500 500" width="500" height="500" style="background:white">
  <circle cx="251.0" cy="254.3" r="12.1" fill="black"/>
  <circle cx="310.0" cy="177.7" r="12.1" fill="black"/>
  <circle cx="381.5" cy="99.9" r="12.1" fill="black"/>
  <circle cx="92.9" cy="252.0" r="11.8" fill="black"/>
  <circle cx="167.5" cy="148.4" r="11.8" fill="black"/>
  <circle cx="132.6" cy="73.4" r="11.8" fill="black"/>
  <circle cx="238.3" cy="379.4" r="11.6" fill="black"/>
  <circle cx="244.8" cy="181.9" r="11.6" fill="black"/>
  <circle cx="219.7" cy="52.3" r="11.6" fill="black"/>
  <circle cx="166.3" cy="194.2" r="9.8" fill="black"/>
  <circle cx="291.4" cy="361.8" r="9.5" fill="black"/>
  <circle cx="251.0" cy="87.8" r="9.5" fill="black"/>
  <circle cx="105.2" cy="190.2" r="9.3" fill="black"/>
  <circle cx="402.4" cy="138.7" r="9.3" fill="black"/>
  <circle cx="111.0" cy="315.1" r="9.1" fill="black"/>
  <circle cx="40.0" cy="194.6" r="9.1" fill="black"/>
  <circle cx="325.6" cy="97.1" r="9.1" fill="black"/>
  <circle cx="170.2" cy="340.9" r="8.8" fill="black"/>
  <circle cx="82.3" cy="284.2" r="8.8" fill="black"/>
  <circle cx="215.5" cy="265.2" r="8.8" fill="black"/>
  <circle cx="114.1" cy="226.9" r="8.8" fill="black"/>
  <circle cx="254.3" cy="220.9" r="8.8" fill="black"/>
  <circle cx="389.7" cy="122.7" r="8.6" fill="black"/>
  <circle cx="135.9" cy="97.3" r="8.6" fill="black"/>
  <circle cx="334.6" cy="249.0" r="8.4" fill="black"/>
  <circle cx="172.8" cy="43.0" r="8.4" fill="black"/>
  <circle cx="286.3" cy="380.8" r="8.1" fill="black"/>
  <circle cx="260.8" cy="376.9" r="8.1" fill="black"/>
  <circle cx="298.9" cy="301.0" r="8.1" fill="black"/>
  <circle cx="197.2" cy="264.5" r="8.1" fill="black"/>
  <circle cx="57.9" cy="200.2" r="8.1" fill="black"/>
  <circle cx="260.1" cy="157.0" r="8.1" fill="black"/>
  <circle cx="268.7" cy="110.6" r="8.1" fill="black"/>
  <circle cx="248.7" cy="69.0" r="8.1" fill="black"/>
  <circle cx="187.2" cy="362.5" r="7.9" fill="black"/>
  <circle cx="91.8" cy="311.4" r="7.9" fill="black"/>
  <circle cx="239.9" cy="273.8" r="7.9" fill="black"/>
  <circle cx="432.4" cy="223.6" r="7.9" fill="black"/>
  <circle cx="254.5" cy="202.5" r="7.9" fill="black"/>
  <circle cx="178.6" cy="168.6" r="7.9" fill="black"/>
  <circle cx="391.5" cy="166.8" r="7.9" fill="black"/>
  <circle cx="147.5" cy="125.0" r="7.9" fill="black"/>
  <circle cx="142.4" cy="54.6" r="7.9" fill="black"/>
  <circle cx="181.2" cy="243.4" r="7.7" fill="black"/>
  <circle cx="413.3" cy="230.1" r="7.7" fill="black"/>
  <circle cx="456.5" cy="228.1" r="7.7" fill="black"/>
  <circle cx="196.7" cy="53.5" r="7.7" fill="black"/>
  <circle cx="396.4" cy="208.8" r="7.4" fill="black"/>
  <circle cx="316.7" cy="294.2" r="7.2" fill="black"/>
  <circle cx="332.3" cy="219.7" r="7.2" fill="black"/>
  <circle cx="239.9" cy="54.4" r="6.5" fill="black"/>
  <circle cx="295.2" cy="344.4" r="6.0" fill="black"/>
  <circle cx="308.4" cy="340.9" r="6.0" fill="black"/>
  <circle cx="127.5" cy="311.2" r="6.0" fill="black"/>
  <circle cx="261.3" cy="235.3" r="6.0" fill="black"/>
  <circle cx="446.3" cy="214.4" r="6.0" fill="black"/>
  <circle cx="231.8" cy="69.5" r="6.0" fill="black"/>
  <circle cx="160.0" cy="56.3" r="6.0" fill="black"/>
  <circle cx="155.4" cy="44.2" r="6.0" fill="black"/>
  <circle cx="339.5" cy="206.5" r="5.8" fill="black"/>
  <circle cx="295.9" cy="162.4" r="5.8" fill="black"/>
  <circle cx="119.6" cy="91.3" r="5.8" fill="black"/>
  <circle cx="100.1" cy="235.0" r="5.6" fill="black"/>
  <circle cx="403.8" cy="157.5" r="5.6" fill="black"/>
  <circle cx="94.8" cy="295.6" r="5.3" fill="black"/>
  <circle cx="313.0" cy="278.4" r="5.3" fill="black"/>
  <circle cx="380.8" cy="206.7" r="5.3" fill="black"/>
  <circle cx="118.2" cy="200.0" r="5.3" fill="black"/>
  <circle cx="66.7" cy="186.7" r="5.3" fill="black"/>
  <circle cx="163.3" cy="166.3" r="5.3" fill="black"/>
  <circle cx="245.7" cy="162.1" r="5.3" fill="black"/>
  <circle cx="161.9" cy="129.2" r="5.3" fill="black"/>
  <circle cx="137.5" cy="113.1" r="5.3" fill="black"/>
  <circle cx="266.1" cy="94.6" r="5.3" fill="black"/>
  <circle cx="371.1" cy="83.0" r="5.3" fill="black"/>
  <circle cx="189.5" cy="40.2" r="5.3" fill="black"/>
  <circle cx="254.3" cy="390.3" r="5.1" fill="black"/>
  <circle cx="221.3" cy="367.1" r="5.1" fill="black"/>
  <circle cx="165.4" cy="326.0" r="5.1" fill="black"/>
  <circle cx="325.6" cy="283.3" r="5.1" fill="black"/>
  <circle cx="344.8" cy="238.5" r="5.1" fill="black"/>
  <circle cx="90.1" cy="198.6" r="5.1" fill="black"/>
  <circle cx="166.3" cy="177.9" r="5.1" fill="black"/>
  <circle cx="290.5" cy="174.4" r="5.1" fill="black"/>
  <circle cx="275.7" cy="124.0" r="5.1" fill="black"/>
  <circle cx="286.8" cy="121.7" r="5.1" fill="black"/>
  <circle cx="254.5" cy="104.3" r="5.1" fill="black"/>
  <circle cx="203.9" cy="40.0" r="5.1" fill="black"/>
  <circle cx="173.7" cy="357.1" r="4.9" fill="black"/>
  <circle cx="460.0" cy="211.3" r="4.9" fill="black"/>
  <circle cx="180.9" cy="184.4" r="4.9" fill="black"/>
  <circle cx="286.6" cy="109.7" r="4.9" fill="black"/>
  <circle cx="362.5" cy="96.0" r="4.9" fill="black"/>
  <circle cx="219.7" cy="381.8" r="4.6" fill="black"/>
  <circle cx="170.9" cy="211.8" r="4.6" fill="black"/>
  <circle cx="241.8" cy="211.1" r="4.6" fill="black"/>
  <circle cx="159.1" cy="211.1" r="4.6" fill="black"/>
  <circle cx="148.2" cy="107.8" r="4.6" fill="black"/>
  <circle cx="168.4" cy="248.7" r="4.4" fill="black"/>
  <circle cx="399.4" cy="110.8" r="4.4" fill="black"/>
  <circle cx="268.0" cy="170.2" r="4.2" fill="black"/>
  <circle cx="255.5" cy="115.2" r="4.2" fill="black"/>
  <circle cx="341.4" cy="99.9" r="4.2" fill="black"/>
  <circle cx="385.9" cy="216.9" r="3.9" fill="black"/>
  <circle cx="328.4" cy="183.0" r="3.9" fill="black"/>
  <circle cx="350.0" cy="94.1" r="3.9" fill="black"/>
  <circle cx="338.3" cy="263.1" r="3.7" fill="black"/>
  <circle cx="152.6" cy="138.7" r="3.7" fill="black"/>
  <circle cx="156.3" cy="336.7" r="3.5" fill="black"/>
  <circle cx="311.2" cy="307.9" r="3.5" fill="black"/>
  <circle cx="102.5" cy="303.1" r="3.5" fill="black"/>
  <circle cx="204.6" cy="275.4" r="3.5" fill="black"/>
  <circle cx="408.7" cy="216.2" r="3.5" fill="black"/>
  <circle cx="257.1" cy="170.0" r="3.5" fill="black"/>
  <circle cx="350.2" cy="210.9" r="3.3" fill="black"/>
  <circle cx="156.6" cy="115.0" r="3.3" fill="black"/>
  <circle cx="150.7" cy="63.7" r="3.3" fill="black"/>
  <circle cx="195.1" cy="351.6" r="3.0" fill="black"/>
  <circle cx="239.0" cy="77.8" r="3.0" fill="black"/>
  <circle cx="149.1" cy="73.7" r="3.0" fill="black"/>
  <circle cx="182.8" cy="53.5" r="3.0" fill="black"/>
  <circle cx="323.9" cy="110.8" r="2.8" fill="black"/>
</svg>