<?xml version="1.0" encoding="UTF-8"?>
<svg viewBox="910 1025 794 772" width="512" height="512" xmlns="http://www.w3.org/2000/svg">
  <circle cx="1091" cy="1687" r="51" fill="#000000" />
  <circle cx="1213" cy="1434" r="50" fill="#000000" />
  <circle cx="1313" cy="1145" r="50" fill="#000000" />
  <circle cx="1535" cy="1118" r="43" fill="#000000" />
  <circle cx="1181" cy="1560" r="39" fill="#000000" />
  <circle cx="1191" cy="1339" r="32" fill="#000000" />
  <circle cx="1400" cy="1129" r="32" fill="#000000" />
  <circle cx="1460" cy="1090" r="32" fill="#000000" />
  <circle cx="1007" cy="1706" r="29" fill="#000000" />
  <circle cx="1177" cy="1638" r="29" fill="#000000" />
  <circle cx="1117" cy="1605" r="29" fill="#000000" />
  <circle cx="1612" cy="1144" r="27" fill="#000000" />
  <circle cx="1658" cy="1176" r="26" fill="#000000" />
  <circle cx="1360" cy="1071" r="26" fill="#000000" />
  <circle cx="1463" cy="1153" r="25" fill="#000000" />
  <circle cx="1614" cy="1088" r="24" fill="#000000" />
  <circle cx="1162" cy="1496" r="21" fill="#000000" />
  <circle cx="950" cy="1701" r="20" fill="#000000" />
  <circle cx="1057" cy="1758" r="19" fill="#000000" />
  <circle cx="1217" cy="1505" r="16" fill="#000000" />
  <circle cx="1170" cy="1288" r="15" fill="#000000" />
  <circle cx="1405" cy="1073" r="13" fill="#000000" />
  <circle cx="1254" cy="1103" r="10" fill="#000000" />
</svg>