<svg xmlns="http://www.w3.org/2000/svg" viewBox="0 0 500 500" width="500" height="500" style="background:white">
  <circle cx="334.1" cy="205.9" r="11.9" fill="black"/>
  <circle cx="270.9" cy="96.2" r="11.9" fill="black"/>
  <circle cx="191.9" cy="84.7" r="11.9" fill="black"/>
  <circle cx="120.5" cy="304.4" r="11.7" fill="black"/>
  <circle cx="255.5" cy="265.6" r="11.7" fill="black"/>
  <circle cx="205.4" cy="178.8" r="11.7" fill="black"/>
  <circle cx="116.5" cy="126.3" r="11.7" fill="black"/>
  <circle cx="376.7" cy="80.5" r="11.7" fill="black"/>
  <circle cx="197.9" cy="328.7" r="11.5" fill="black"/>
  <circle cx="346.8" cy="272.6" r="11.5" fill="black"/>
  <circle cx="159.8" cy="244.5" r="11.5" fill="black"/>
  <circle cx="439.6" cy="214.6" r="11.5" fill="black"/>
  <circle cx="88.4" cy="208.2" r="11.2" fill="black"/>
  <circle cx="313.5" cy="363.6" r="11.0" fill="black"/>
  <circle cx="135.9" cy="323.6" r="9.6" fill="black"/>
  <circle cx="276.6" cy="384.2" r="8.9" fill="black"/>
  <circle cx="212.4" cy="346.8" r="8.9" fill="black"/>
  <circle cx="315.9" cy="321.9" r="8.9" fill="black"/>
  <circle cx="376.5" cy="281.2" r="8.9" fill="black"/>
  <circle cx="349.1" cy="155.6" r="8.9" fill="black"/>
  <circle cx="290.8" cy="67.8" r="8.9" fill="black"/>
  <circle cx="237.7" cy="363.1" r="8.7" fill="black"/>
  <circle cx="314.2" cy="341.8" r="8.7" fill="black"/>
  <circle cx="289.4" cy="310.7" r="8.7" fill="black"/>
  <circle cx="122.1" cy="195.1" r="8.7" fill="black"/>
  <circle cx="245.0" cy="285.0" r="8.4" fill="black"/>
  <circle cx="394.3" cy="265.8" r="8.4" fill="black"/>
  <circle cx="324.5" cy="263.0" r="8.4" fill="black"/>
  <circle cx="190.5" cy="207.3" r="8.4" fill="black"/>
  <circle cx="292.7" cy="205.7" r="8.4" fill="black"/>
  <circle cx="342.8" cy="183.4" r="8.4" fill="black"/>
  <circle cx="349.6" cy="131.7" r="8.4" fill="black"/>
  <circle cx="207.1" cy="102.0" r="8.4" fill="black"/>
  <circle cx="351.4" cy="58.7" r="8.4" fill="black"/>
  <circle cx="175.9" cy="335.5" r="8.2" fill="black"/>
  <circle cx="271.2" cy="300.7" r="8.2" fill="black"/>
  <circle cx="126.1" cy="283.1" r="8.2" fill="black"/>
  <circle cx="133.4" cy="264.4" r="8.2" fill="black"/>
  <circle cx="276.8" cy="252.9" r="8.2" fill="black"/>
  <circle cx="404.8" cy="229.3" r="8.2" fill="black"/>
  <circle cx="40.0" cy="198.9" r="8.2" fill="black"/>
  <circle cx="234.0" cy="164.7" r="8.2" fill="black"/>
  <circle cx="132.9" cy="154.9" r="8.2" fill="black"/>
  <circle cx="255.3" cy="110.9" r="8.2" fill="black"/>
  <circle cx="128.0" cy="89.1" r="8.2" fill="black"/>
  <circle cx="137.8" cy="248.7" r="8.0" fill="black"/>
  <circle cx="416.9" cy="215.5" r="8.0" fill="black"/>
  <circle cx="306.0" cy="257.8" r="7.7" fill="black"/>
  <circle cx="273.5" cy="193.5" r="7.7" fill="black"/>
  <circle cx="155.1" cy="74.9" r="7.7" fill="black"/>
  <circle cx="295.3" cy="389.1" r="7.5" fill="black"/>
  <circle cx="293.6" cy="371.6" r="7.5" fill="black"/>
  <circle cx="305.8" cy="219.7" r="7.5" fill="black"/>
  <circle cx="126.3" cy="177.8" r="7.5" fill="black"/>
  <circle cx="114.9" cy="102.7" r="7.5" fill="black"/>
  <circle cx="316.1" cy="49.4" r="7.5" fill="black"/>
  <circle cx="247.1" cy="381.1" r="7.3" fill="black"/>
  <circle cx="65.0" cy="210.8" r="7.3" fill="black"/>
  <circle cx="247.8" cy="178.3" r="7.0" fill="black"/>
  <circle cx="255.0" cy="299.3" r="6.8" fill="black"/>
  <circle cx="145.3" cy="88.2" r="6.8" fill="black"/>
  <circle cx="459.5" cy="217.8" r="6.6" fill="black"/>
  <circle cx="217.1" cy="163.8" r="6.6" fill="black"/>
  <circle cx="354.0" cy="115.3" r="6.6" fill="black"/>
  <circle cx="368.3" cy="109.7" r="6.6" fill="black"/>
  <circle cx="236.8" cy="109.5" r="6.6" fill="black"/>
  <circle cx="224.1" cy="101.5" r="6.6" fill="black"/>
  <circle cx="361.3" cy="96.6" r="6.6" fill="black"/>
  <circle cx="276.1" cy="76.3" r="6.6" fill="black"/>
  <circle cx="297.4" cy="51.2" r="6.6" fill="black"/>
  <circle cx="262.5" cy="375.1" r="6.3" fill="black"/>
  <circle cx="146.7" cy="337.4" r="6.3" fill="black"/>
  <circle cx="175.2" cy="230.2" r="6.3" fill="black"/>
  <circle cx="175.5" cy="216.0" r="6.3" fill="black"/>
  <circle cx="460.0" cy="203.8" r="6.3" fill="black"/>
  <circle cx="331.8" cy="55.4" r="6.3" fill="black"/>
  <circle cx="341.6" cy="44.0" r="6.3" fill="black"/>
  <circle cx="217.4" cy="331.3" r="6.1" fill="black"/>
  <circle cx="360.3" cy="286.6" r="6.1" fill="black"/>
  <circle cx="138.0" cy="75.1" r="6.1" fill="black"/>
  <circle cx="408.3" cy="257.1" r="5.8" fill="black"/>
  <circle cx="312.4" cy="205.9" r="5.8" fill="black"/>
  <circle cx="256.0" cy="193.0" r="5.8" fill="black"/>
  <circle cx="352.4" cy="170.8" r="5.8" fill="black"/>
  <circle cx="140.1" cy="170.6" r="5.8" fill="black"/>
  <circle cx="338.3" cy="167.3" r="5.8" fill="black"/>
  <circle cx="382.1" cy="100.8" r="5.8" fill="black"/>
  <circle cx="328.3" cy="40.0" r="5.8" fill="black"/>
  <circle cx="160.0" cy="341.4" r="5.6" fill="black"/>
  <circle cx="261.8" cy="284.3" r="5.6" fill="black"/>
  <circle cx="108.6" cy="211.0" r="5.6" fill="black"/>
  <circle cx="119.6" cy="144.8" r="5.6" fill="black"/>
  <circle cx="172.2" cy="79.1" r="5.6" fill="black"/>
  <circle cx="161.9" cy="326.4" r="5.4" fill="black"/>
  <circle cx="132.7" cy="139.0" r="5.4" fill="black"/>
  <circle cx="288.5" cy="82.8" r="5.4" fill="black"/>
  <circle cx="369.2" cy="63.4" r="5.4" fill="black"/>
  <circle cx="258.8" cy="388.4" r="5.1" fill="black"/>
  <circle cx="229.1" cy="349.6" r="5.1" fill="black"/>
  <circle cx="274.9" cy="316.1" r="5.1" fill="black"/>
  <circle cx="274.0" cy="268.6" r="5.1" fill="black"/>
  <circle cx="291.1" cy="261.1" r="5.1" fill="black"/>
  <circle cx="223.0" cy="175.9" r="5.1" fill="black"/>
  <circle cx="364.1" cy="124.7" r="5.1" fill="black"/>
  <circle cx="307.7" cy="381.8" r="4.9" fill="black"/>
  <circle cx="328.0" cy="332.2" r="4.9" fill="black"/>
  <circle cx="119.3" cy="323.4" r="4.9" fill="black"/>
  <circle cx="299.7" cy="322.2" r="4.9" fill="black"/>
  <circle cx="110.7" cy="287.3" r="4.9" fill="black"/>
  <circle cx="147.9" cy="258.1" r="4.9" fill="black"/>
  <circle cx="293.2" cy="249.9" r="4.9" fill="black"/>
  <circle cx="403.1" cy="244.0" r="4.9" fill="black"/>
  <circle cx="71.6" cy="198.4" r="4.9" fill="black"/>
  <circle cx="58.0" cy="197.9" r="4.9" fill="black"/>
  <circle cx="106.0" cy="197.7" r="4.9" fill="black"/>
  <circle cx="190.7" cy="192.6" r="4.9" fill="black"/>
  <circle cx="241.9" cy="123.5" r="4.9" fill="black"/>
  <circle cx="229.5" cy="120.0" r="4.9" fill="black"/>
  <circle cx="360.1" cy="70.4" r="4.9" fill="black"/>
  <circle cx="306.3" cy="61.8" r="4.9" fill="black"/>
  <circle cx="327.8" cy="348.4" r="4.7" fill="black"/>
  <circle cx="305.6" cy="311.4" r="4.7" fill="black"/>
  <circle cx="314.0" cy="247.1" r="4.7" fill="black"/>
  <circle cx="274.9" cy="208.5" r="4.7" fill="black"/>
  <circle cx="51.7" cy="207.8" r="4.7" fill="black"/>
  <circle cx="338.6" cy="142.7" r="4.7" fill="black"/>
  <circle cx="218.8" cy="114.2" r="4.7" fill="black"/>
  <circle cx="126.3" cy="110.2" r="4.7" fill="black"/>
  <circle cx="167.8" cy="68.1" r="4.7" fill="black"/>
  <circle cx="222.3" cy="358.0" r="4.4" fill="black"/>
  <circle cx="186.7" cy="223.0" r="4.4" fill="black"/>
  <circle cx="318.9" cy="216.4" r="4.4" fill="black"/>
  <circle cx="137.6" cy="185.3" r="4.4" fill="black"/>
  <circle cx="179.2" cy="69.7" r="4.4" fill="black"/>
  <circle cx="366.2" cy="269.8" r="4.2" fill="black"/>
  <circle cx="378.1" cy="265.6" r="4.2" fill="black"/>
  <circle cx="393.1" cy="250.6" r="4.2" fill="black"/>
  <circle cx="200.7" cy="197.9" r="4.2" fill="black"/>
  <circle cx="263.0" cy="182.5" r="4.2" fill="black"/>
  <circle cx="234.4" cy="179.2" r="4.2" fill="black"/>
  <circle cx="413.4" cy="242.2" r="4.0" fill="black"/>
  <circle cx="349.3" cy="196.8" r="4.0" fill="black"/>
  <circle cx="335.3" cy="154.9" r="4.0" fill="black"/>
  <circle cx="239.4" cy="272.8" r="3.7" fill="black"/>
  <circle cx="123.1" cy="165.4" r="3.7" fill="black"/>
  <circle cx="158.2" cy="88.7" r="3.7" fill="black"/>
  <circle cx="210.1" cy="87.7" r="3.7" fill="black"/>
  <circle cx="305.6" cy="41.6" r="3.7" fill="black"/>
  <circle cx="133.8" cy="338.1" r="3.5" fill="black"/>
  <circle cx="183.0" cy="239.8" r="3.5" fill="black"/>
  <circle cx="362.4" cy="150.4" r="3.5" fill="black"/>
  <circle cx="251.3" cy="367.8" r="3.3" fill="black"/>
  <circle cx="151.1" cy="325.5" r="3.3" fill="black"/>
  <circle cx="115.6" cy="274.9" r="3.3" fill="black"/>
  <circle cx="330.1" cy="273.0" r="3.3" fill="black"/>
  <circle cx="418.1" cy="228.8" r="3.3" fill="black"/>
  <circle cx="426.8" cy="225.5" r="3.3" fill="black"/>
  <circle cx="259.5" cy="173.6" r="3.3" fill="black"/>
  <circle cx="357.7" cy="143.0" r="3.3" fill="black"/>
  <circle cx="306.3" cy="331.8" r="3.0" fill="black"/>
  <circle cx="51.2" cy="191.4" r="3.0" fill="black"/>
  <circle cx="180.9" cy="323.8" r="2.8" fill="black"/>
  <circle cx="236.8" cy="376.0" r="2.1" fill="black"/>
</svg>