<svg xmlns="http://www.w3.org/2000/svg" viewBox="0 0 500 500" width="500" height="500" style="background:white">
  <circle cx="40.0" cy="205.4" r="13.3" fill="black"/>
  <circle cx="351.9" cy="195.7" r="13.1" fill="black"/>
  <circle cx="384.1" cy="118.1" r="13.1" fill="black"/>
  <circle cx="194.3" cy="92.2" r="13.1" fill="black"/>
  <circle cx="276.7" cy="74.6" r="13.1" fill="black"/>
  <circle cx="351.4" cy="60.1" r="13.1" fill="black"/>
  <circle cx="361.3" cy="271.9" r="12.8" fill="black"/>
  <circle cx="163.6" cy="173.2" r="12.8" fill="black"/>
  <circle cx="139.1" cy="259.3" r="12.6" fill="black"/>
  <circle cx="254.5" cy="185.1" r="12.6" fill="black"/>
  <circle cx="440.7" cy="294.1" r="12.3" fill="black"/>
  <circle cx="265.1" cy="276.5" r="12.3" fill="black"/>
  <circle cx="185.8" cy="318.3" r="12.1" fill="black"/>
  <circle cx="415.5" cy="300.4" r="10.9" fill="black"/>
  <circle cx="132.8" cy="235.4" r="10.6" fill="black"/>
  <circle cx="272.1" cy="207.3" r="10.4" fill="black"/>
  <circle cx="190.4" cy="177.8" r="10.4" fill="black"/>
  <circle cx="145.9" cy="139.4" r="10.4" fill="black"/>
  <circle cx="165.0" cy="306.9" r="10.2" fill="black"/>
  <circle cx="330.6" cy="42.9" r="9.9" fill="black"/>
  <circle cx="224.0" cy="322.4" r="9.7" fill="black"/>
  <circle cx="257.6" cy="300.9" r="9.7" fill="black"/>
  <circle cx="98.8" cy="199.3" r="9.7" fill="black"/>
  <circle cx="239.7" cy="102.9" r="9.7" fill="black"/>
  <circle cx="288.3" cy="50.6" r="9.7" fill="black"/>
  <circle cx="372.7" cy="293.9" r="9.4" fill="black"/>
  <circle cx="373.0" cy="141.8" r="9.4" fill="black"/>
  <circle cx="169.6" cy="96.1" r="9.4" fill="black"/>
  <circle cx="218.2" cy="105.0" r="9.2" fill="black"/>
  <circle cx="335.2" cy="233.2" r="8.9" fill="black"/>
  <circle cx="379.2" cy="163.3" r="8.9" fill="black"/>
  <circle cx="366.9" cy="81.6" r="8.9" fill="black"/>
  <circle cx="143.7" cy="161.6" r="8.7" fill="black"/>
  <circle cx="384.8" cy="89.1" r="8.7" fill="black"/>
  <circle cx="205.6" cy="329.9" r="8.5" fill="black"/>
  <circle cx="64.2" cy="202.2" r="8.5" fill="black"/>
  <circle cx="141.3" cy="285.4" r="8.2" fill="black"/>
  <circle cx="275.5" cy="228.8" r="8.2" fill="black"/>
  <circle cx="118.8" cy="202.5" r="8.2" fill="black"/>
  <circle cx="399.8" cy="284.7" r="8.0" fill="black"/>
  <circle cx="354.6" cy="219.4" r="8.0" fill="black"/>
  <circle cx="231.5" cy="174.4" r="8.0" fill="black"/>
  <circle cx="312.0" cy="55.5" r="8.0" fill="black"/>
  <circle cx="392.5" cy="300.4" r="7.7" fill="black"/>
  <circle cx="351.2" cy="251.6" r="7.7" fill="black"/>
  <circle cx="154.4" cy="108.2" r="7.7" fill="black"/>
  <circle cx="258.8" cy="105.3" r="7.5" fill="black"/>
  <circle cx="243.4" cy="316.6" r="7.0" fill="black"/>
  <circle cx="119.8" cy="220.9" r="7.0" fill="black"/>
  <circle cx="358.7" cy="174.9" r="7.0" fill="black"/>
  <circle cx="82.3" cy="193.8" r="6.8" fill="black"/>
  <circle cx="209.5" cy="173.7" r="6.8" fill="black"/>
  <circle cx="259.8" cy="89.1" r="6.8" fill="black"/>
  <circle cx="334.7" cy="250.8" r="6.5" fill="black"/>
  <circle cx="277.2" cy="246.0" r="6.5" fill="black"/>
  <circle cx="338.9" cy="213.6" r="6.5" fill="black"/>
  <circle cx="207.6" cy="314.7" r="6.3" fill="black"/>
  <circle cx="264.4" cy="256.4" r="6.3" fill="black"/>
  <circle cx="304.0" cy="40.0" r="6.3" fill="black"/>
  <circle cx="382.1" cy="279.9" r="6.0" fill="black"/>
  <circle cx="340.8" cy="263.2" r="6.0" fill="black"/>
  <circle cx="353.6" cy="235.6" r="6.0" fill="black"/>
  <circle cx="216.3" cy="86.9" r="6.0" fill="black"/>
  <circle cx="297.5" cy="65.1" r="6.0" fill="black"/>
  <circle cx="155.3" cy="275.5" r="5.8" fill="black"/>
  <circle cx="329.4" cy="60.6" r="5.8" fill="black"/>
  <circle cx="161.1" cy="288.1" r="5.6" fill="black"/>
  <circle cx="422.8" cy="282.8" r="5.6" fill="black"/>
  <circle cx="78.9" cy="207.1" r="5.6" fill="black"/>
  <circle cx="271.9" cy="95.6" r="5.6" fill="black"/>
  <circle cx="132.6" cy="215.3" r="5.3" fill="black"/>
  <circle cx="218.7" cy="183.4" r="5.3" fill="black"/>
  <circle cx="157.8" cy="153.2" r="5.3" fill="black"/>
  <circle cx="155.1" cy="123.2" r="5.3" fill="black"/>
  <circle cx="265.1" cy="240.4" r="5.1" fill="black"/>
  <circle cx="372.5" cy="63.7" r="5.1" fill="black"/>
  <circle cx="227.2" cy="116.9" r="4.8" fill="black"/>
  <circle cx="373.9" cy="101.4" r="4.8" fill="black"/>
  <circle cx="240.4" cy="302.3" r="4.6" fill="black"/>
  <circle cx="108.2" cy="214.3" r="4.6" fill="black"/>
  <circle cx="207.6" cy="186.0" r="4.6" fill="black"/>
  <circle cx="391.6" cy="137.7" r="4.6" fill="black"/>
  <circle cx="140.8" cy="121.7" r="4.6" fill="black"/>
  <circle cx="460.0" cy="289.1" r="4.4" fill="black"/>
  <circle cx="277.4" cy="259.3" r="4.4" fill="black"/>
  <circle cx="184.6" cy="163.3" r="4.4" fill="black"/>
  <circle cx="226.9" cy="92.0" r="4.4" fill="black"/>
  <circle cx="380.2" cy="73.6" r="4.4" fill="black"/>
  <circle cx="449.4" cy="309.6" r="4.1" fill="black"/>
  <circle cx="230.3" cy="306.5" r="3.9" fill="black"/>
  <circle cx="151.5" cy="296.1" r="3.9" fill="black"/>
  <circle cx="237.1" cy="188.2" r="3.6" fill="black"/>
  <circle cx="243.8" cy="170.1" r="3.1" fill="black"/>
</svg>