<?xml version="1.0" encoding="UTF-8" standalone="no"?>
<svg
   viewBox="0 0 500 500"
   width="500"
   height="500"
   style="background:white"
   version="1.1"
   id="svg97"
   sodipodi:docname="draw_27_purple.svg"
   inkscape:version="1.3.2 (091e20e, 2023-11-25, custom)"
   xmlns:inkscape="http://www.inkscape.org/namespaces/inkscape"
   xmlns:sodipodi="http://sodipodi.sourceforge.net/DTD/sodipodi-0.dtd"
   xmlns="http://www.w3.org/2000/svg"
   xmlns:svg="http://www.w3.org/2000/svg">
  <defs
     id="defs97" />
  <sodipodi:namedview
     id="namedview97"
     pagecolor="#ffffff"
     bordercolor="#000000"
     borderopacity="0.25"
     inkscape:showpageshadow="2"
     inkscape:pageopacity="0.0"
     inkscape:pagecheckerboard="0"
     inkscape:deskcolor="#d1d1d1"
     inkscape:zoom="3.786"
     inkscape:cx="249.86793"
     inkscape:cy="250"
     inkscape:window-width="3840"
     inkscape:window-height="2089"
     inkscape:window-x="-8"
     inkscape:window-y="-8"
     inkscape:window-maximized="1"
     inkscape:current-layer="svg97" />
  <circle
     cx="447.6"
     cy="220.5"
     r="11.0"
     fill="black"
     id="circle1" />
  <circle
     cx="245.3"
     cy="170.1"
     r="11.0"
     fill="black"
     id="circle2" />
  <circle
     cx="261.4"
     cy="51.3"
     r="11.0"
     fill="black"
     id="circle3" />
  <circle
     cx="46.9"
     cy="197.0"
     r="10.8"
     fill="black"
     id="circle4" />
  <circle
     cx="323.7"
     cy="194.9"
     r="10.8"
     fill="black"
     id="circle5" />
  <circle
     cx="107.4"
     cy="185.7"
     r="10.8"
     fill="black"
     id="circle6" />
  <circle
     cx="421.4"
     cy="169.2"
     r="10.8"
     fill="black"
     id="circle7" />
  <circle
     cx="180.5"
     cy="70.8"
     r="10.8"
     fill="black"
     id="circle8" />
  <circle
     cx="292.9"
     cy="209.7"
     r="10.6"
     fill="black"
     id="circle9" />
  <circle
     cx="152.9"
     cy="124.6"
     r="10.6"
     fill="black"
     id="circle10" />
  <circle
     cx="334.3"
     cy="92.9"
     r="10.6"
     fill="black"
     id="circle11" />
  <circle
     cx="440.7"
     cy="183.9"
     r="10.3"
     fill="black"
     id="circle12" />
  <circle
     cx="275.2"
     cy="113.1"
     r="10.3"
     fill="black"
     id="circle13" />
  <circle
     cx="330.1"
     cy="173.1"
     r="9.9"
     fill="black"
     id="circle14" />
  <circle
     cx="300.2"
     cy="71.7"
     r="9.7"
     fill="black"
     id="circle15" />
  <circle
     cx="120.0"
     cy="166.7"
     r="9.4"
     fill="black"
     id="circle16" />
  <circle
     cx="386.4"
     cy="161.6"
     r="9.4"
     fill="black"
     id="circle17" />
  <circle
     cx="197.0"
     cy="55.9"
     r="9.2"
     fill="black"
     id="circle18" />
  <circle
     cx="78.2"
     cy="203.9"
     r="9.0"
     fill="black"
     id="circle19" />
  <circle
     cx="297.0"
     cy="110.8"
     r="9.0"
     fill="black"
     id="circle20" />
  <circle
     cx="142.1"
     cy="91.7"
     r="9.0"
     fill="black"
     id="circle21" />
  <circle
     cx="155.9"
     cy="147.1"
     r="8.7"
     fill="black"
     id="circle22" />
  <circle
     cx="247.1"
     cy="146.4"
     r="8.7"
     fill="black"
     id="circle23" />
  <circle
     cx="162.3"
     cy="82.1"
     r="8.7"
     fill="black"
     id="circle24" />
  <circle
     cx="228.7"
     cy="53.8"
     r="8.7"
     fill="black"
     id="circle25" />
  <circle
     cx="86.9"
     cy="186.7"
     r="8.5"
     fill="black"
     id="circle26" />
  <circle
     cx="362.8"
     cy="166.9"
     r="8.5"
     fill="black"
     id="circle27" />
  <circle
     cx="244.8"
     cy="126.7"
     r="8.5"
     fill="black"
     id="circle28" />
  <circle
     cx="136.6"
     cy="110.3"
     r="8.5"
     fill="black"
     id="circle29" />
  <circle
     cx="280.9"
     cy="65.5"
     r="8.5"
     fill="black"
     id="circle30" />
  <circle
     cx="139.1"
     cy="158.9"
     r="8.0"
     fill="black"
     id="circle31" />
  <circle
     cx="315.4"
     cy="100.7"
     r="8.0"
     fill="black"
     id="circle32" />
  <circle
     cx="344.6"
     cy="159.5"
     r="7.8"
     fill="black"
     id="circle34" />
  <circle
     cx="405.3"
     cy="155.6"
     r="7.8"
     fill="black"
     id="circle35" />
  <circle
     cx="316.8"
     cy="83.2"
     r="7.8"
     fill="black"
     id="circle36" />
  <circle
     cx="214.5"
     cy="64.4"
     r="7.8"
     fill="black"
     id="circle37" />
  <circle
     cx="312.9"
     cy="211.7"
     r="7.6"
     fill="black"
     id="circle38" />
  <circle
     cx="453.1"
     cy="200.2"
     r="7.6"
     fill="black"
     id="circle39" />
  <circle
     cx="66.4"
     cy="189.2"
     r="7.6"
     fill="black"
     id="circle40" />
  <circle
     cx="262.5"
     cy="184.4"
     r="7.6"
     fill="black"
     id="circle41" />
  <circle
     cx="276.6"
     cy="196.6"
     r="7.4"
     fill="black"
     id="circle42" />
  <circle
     cx="328.3"
     cy="112.0"
     r="7.1"
     fill="black"
     id="circle43" />
  <circle
     cx="259.3"
     cy="200.5"
     r="6.9"
     fill="black"
     id="circle44" />
  <circle
     cx="261.1"
     cy="130.1"
     r="6.9"
     fill="black"
     id="circle45" />
  <circle
     cx="294.5"
     cy="54.9"
     r="6.9"
     fill="black"
     id="circle46" />
  <circle
     cx="401.6"
     cy="170.1"
     r="6.2"
     fill="black"
     id="circle48" />
  <circle
     cx="359.8"
     cy="150.8"
     r="6.2"
     fill="black"
     id="circle49" />
  <circle
     cx="327.6"
     cy="71.7"
     r="6.2"
     fill="black"
     id="circle50" />
  <circle
     cx="243.2"
     cy="43.0"
     r="6.2"
     fill="black"
     id="circle51" />
  <circle
     cx="248.3"
     cy="188.5"
     r="6.0"
     fill="black"
     id="circle52" />
  <circle
     cx="231.5"
     cy="139.3"
     r="6.0"
     fill="black"
     id="circle53" />
  <circle
     cx="312.9"
     cy="117.0"
     r="6.0"
     fill="black"
     id="circle54" />
  <circle
     cx="256.3"
     cy="115.6"
     r="6.0"
     fill="black"
     id="circle55" />
  <circle
     cx="147.6"
     cy="74.9"
     r="6.0"
     fill="black"
     id="circle56" />
  <circle
     cx="280.5"
     cy="48.3"
     r="6.0"
     fill="black"
     id="circle57" />
  <circle
     cx="373.6"
     cy="151.0"
     r="5.7"
     fill="black"
     id="circle58" />
  <circle
     cx="307.1"
     cy="197.7"
     r="5.5"
     fill="black"
     id="circle60" />
  <circle
     cx="212.4"
     cy="49.2"
     r="5.5"
     fill="black"
     id="circle61" />
  <circle
     cx="269.4"
     cy="209.7"
     r="5.3"
     fill="black"
     id="circle62" />
  <circle
     cx="439.3"
     cy="200.9"
     r="5.3"
     fill="black"
     id="circle63" />
  <circle
     cx="348.0"
     cy="173.6"
     r="5.3"
     fill="black"
     id="circle64" />
  <circle
     cx="243.9"
     cy="58.2"
     r="5.3"
     fill="black"
     id="circle65" />
  <circle
     cx="340.7"
     cy="185.1"
     r="5.1"
     fill="black"
     id="circle67" />
  <circle
     cx="166.9"
     cy="135.4"
     r="5.1"
     fill="black"
     id="circle68" />
  <circle
     cx="163.2"
     cy="67.4"
     r="4.8"
     fill="black"
     id="circle69" />
  <circle
     cx="134.0"
     cy="174.9"
     r="4.6"
     fill="black"
     id="circle70" />
  <circle
     cx="232.4"
     cy="150.6"
     r="4.6"
     fill="black"
     id="circle71" />
  <circle
     cx="154.7"
     cy="108.3"
     r="4.6"
     fill="black"
     id="circle72" />
  <circle
     cx="341.4"
     cy="107.6"
     r="4.6"
     fill="black"
     id="circle73" />
  <circle
     cx="125.1"
     cy="181.4"
     r="4.4"
     fill="black"
     id="circle74" />
  <circle
     cx="288.7"
     cy="123.4"
     r="4.4"
     fill="black"
     id="circle75" />
  <circle
     cx="157.7"
     cy="96.3"
     r="4.4"
     fill="black"
     id="circle76" />
  <circle
     cx="197.5"
     cy="71.5"
     r="4.4"
     fill="black"
     id="circle77" />
  <circle
     cx="152.0"
     cy="161.6"
     r="4.1"
     fill="black"
     id="circle78" />
  <circle
     cx="221.1"
     cy="40.0"
     r="4.1"
     fill="black"
     id="circle79" />
  <circle
     cx="63.7"
     cy="201.6"
     r="3.9"
     fill="black"
     id="circle80" />
  <circle
     cx="94.3"
     cy="197.5"
     r="3.9"
     fill="black"
     id="circle81" />
  <circle
     cx="123.2"
     cy="192.4"
     r="3.9"
     fill="black"
     id="circle82" />
  <circle
     cx="425.1"
     cy="186.0"
     r="3.9"
     fill="black"
     id="circle83" />
  <circle
     cx="440.7"
     cy="168.7"
     r="3.9"
     fill="black"
     id="circle84" />
  <circle
     cx="394.3"
     cy="149.9"
     r="3.9"
     fill="black"
     id="circle85" />
  <circle
     cx="140.5"
     cy="144.6"
     r="3.9"
     fill="black"
     id="circle86" />
  <circle
     cx="317.0"
     cy="68.5"
     r="3.9"
     fill="black"
     id="circle87" />
  <circle
     cx="308.0"
     cy="58.4"
     r="3.9"
     fill="black"
     id="circle88" />
  <circle
     cx="91.7"
     cy="211.5"
     r="3.7"
     fill="black"
     id="circle90" />
  <circle
     cx="456.1"
     cy="186.7"
     r="3.7"
     fill="black"
     id="circle91" />
  <circle
     cx="175.4"
     cy="88.0"
     r="3.7"
     fill="black"
     id="circle92" />
  <circle
     cx="457.0"
     cy="233.3"
     r="3.4"
     fill="black"
     id="circle93" />
  <circle
     cx="460.0"
     cy="209.7"
     r="2.3"
     fill="black"
     id="circle95" />
</svg>
