<svg xmlns="http://www.w3.org/2000/svg" viewBox="0 0 500 500" width="500" height="500" style="background:white">
  <circle cx="353.1" cy="353.9" r="20.3" fill="black"/>
  <circle cx="75.4" cy="334.0" r="19.9" fill="black"/>
  <circle cx="426.6" cy="180.3" r="19.5" fill="black"/>
  <circle cx="120.7" cy="117.1" r="17.9" fill="black"/>
  <circle cx="63.4" cy="273.2" r="17.5" fill="black"/>
  <circle cx="283.2" cy="336.8" r="15.1" fill="black"/>
  <circle cx="113.5" cy="60.7" r="13.1" fill="black"/>
  <circle cx="214.4" cy="164.8" r="11.9" fill="black"/>
  <circle cx="410.3" cy="118.7" r="11.9" fill="black"/>
  <circle cx="144.9" cy="140.9" r="10.7" fill="black"/>
  <circle cx="321.7" cy="363.8" r="9.5" fill="black"/>
  <circle cx="460.0" cy="183.0" r="8.3" fill="black"/>
  <circle cx="193.0" cy="175.9" r="8.3" fill="black"/>
  <circle cx="245.8" cy="286.8" r="7.9" fill="black"/>
  <circle cx="65.8" cy="394.8" r="7.5" fill="black"/>
  <circle cx="378.9" cy="409.9" r="7.2" fill="black"/>
  <circle cx="285.2" cy="312.2" r="6.8" fill="black"/>
  <circle cx="243.8" cy="324.1" r="6.0" fill="black"/>
  <circle cx="40.0" cy="287.5" r="5.2" fill="black"/>
  <circle cx="116.3" cy="40.0" r="5.2" fill="black"/>
</svg>