<svg xmlns="http://www.w3.org/2000/svg" viewBox="0 0 500 500" width="500" height="500" style="background:white">
  <circle cx="276.7" cy="200.0" r="11.5" fill="black"/>
  <circle cx="294.7" cy="322.1" r="11.3" fill="black"/>
  <circle cx="240.8" cy="317.5" r="11.3" fill="black"/>
  <circle cx="175.6" cy="210.9" r="11.3" fill="black"/>
  <circle cx="319.3" cy="165.3" r="11.3" fill="black"/>
  <circle cx="62.3" cy="239.6" r="11.1" fill="black"/>
  <circle cx="229.3" cy="111.8" r="11.1" fill="black"/>
  <circle cx="315.6" cy="272.3" r="10.8" fill="black"/>
  <circle cx="213.4" cy="258.5" r="10.8" fill="black"/>
  <circle cx="446.0" cy="236.0" r="10.8" fill="black"/>
  <circle cx="280.6" cy="223.1" r="10.4" fill="black"/>
  <circle cx="119.7" cy="233.9" r="9.7" fill="black"/>
  <circle cx="387.0" cy="226.3" r="9.7" fill="black"/>
  <circle cx="220.1" cy="293.3" r="9.4" fill="black"/>
  <circle cx="301.6" cy="253.5" r="9.4" fill="black"/>
  <circle cx="86.1" cy="239.6" r="9.4" fill="black"/>
  <circle cx="190.8" cy="228.4" r="9.4" fill="black"/>
  <circle cx="341.9" cy="163.7" r="9.2" fill="black"/>
  <circle cx="263.8" cy="100.3" r="9.2" fill="black"/>
  <circle cx="368.4" cy="299.3" r="9.0" fill="black"/>
  <circle cx="297.0" cy="171.5" r="9.0" fill="black"/>
  <circle cx="168.3" cy="134.6" r="9.0" fill="black"/>
  <circle cx="424.3" cy="241.5" r="8.3" fill="black"/>
  <circle cx="324.6" cy="293.1" r="8.1" fill="black"/>
  <circle cx="316.3" cy="125.2" r="8.1" fill="black"/>
  <circle cx="144.5" cy="206.0" r="7.8" fill="black"/>
  <circle cx="184.4" cy="123.6" r="7.8" fill="black"/>
  <circle cx="213.6" cy="385.6" r="7.6" fill="black"/>
  <circle cx="349.0" cy="183.0" r="7.6" fill="black"/>
  <circle cx="342.3" cy="144.8" r="7.6" fill="black"/>
  <circle cx="257.8" cy="330.4" r="7.1" fill="black"/>
  <circle cx="96.4" cy="297.2" r="7.1" fill="black"/>
  <circle cx="42.1" cy="230.9" r="7.1" fill="black"/>
  <circle cx="399.0" cy="282.7" r="6.9" fill="black"/>
  <circle cx="207.6" cy="239.6" r="6.9" fill="black"/>
  <circle cx="384.0" cy="207.4" r="6.9" fill="black"/>
  <circle cx="279.7" cy="179.3" r="6.9" fill="black"/>
  <circle cx="143.8" cy="222.4" r="6.7" fill="black"/>
  <circle cx="158.1" cy="198.9" r="6.7" fill="black"/>
  <circle cx="294.0" cy="189.7" r="6.7" fill="black"/>
  <circle cx="153.1" cy="146.4" r="6.7" fill="black"/>
  <circle cx="245.2" cy="99.4" r="6.4" fill="black"/>
  <circle cx="148.0" cy="186.9" r="6.2" fill="black"/>
  <circle cx="166.0" cy="185.1" r="6.2" fill="black"/>
  <circle cx="336.8" cy="127.7" r="6.0" fill="black"/>
  <circle cx="281.3" cy="110.9" r="6.0" fill="black"/>
  <circle cx="207.6" cy="280.9" r="5.8" fill="black"/>
  <circle cx="103.8" cy="244.2" r="5.8" fill="black"/>
  <circle cx="286.4" cy="97.3" r="5.8" fill="black"/>
  <circle cx="111.2" cy="298.4" r="5.5" fill="black"/>
  <circle cx="222.1" cy="276.5" r="5.5" fill="black"/>
  <circle cx="299.5" cy="234.8" r="5.5" fill="black"/>
  <circle cx="167.8" cy="152.4" r="5.5" fill="black"/>
  <circle cx="223.1" cy="311.3" r="5.3" fill="black"/>
  <circle cx="209.9" cy="306.6" r="5.3" fill="black"/>
  <circle cx="42.1" cy="245.4" r="5.3" fill="black"/>
  <circle cx="408.0" cy="244.9" r="5.1" fill="black"/>
  <circle cx="298.4" cy="221.4" r="4.8" fill="black"/>
  <circle cx="310.3" cy="182.1" r="4.8" fill="black"/>
  <circle cx="363.3" cy="180.0" r="4.8" fill="black"/>
  <circle cx="234.8" cy="300.7" r="4.6" fill="black"/>
  <circle cx="460.0" cy="247.9" r="4.6" fill="black"/>
  <circle cx="288.7" cy="241.9" r="4.6" fill="black"/>
  <circle cx="292.8" cy="210.2" r="4.6" fill="black"/>
  <circle cx="338.9" cy="290.1" r="4.4" fill="black"/>
  <circle cx="317.7" cy="254.4" r="4.4" fill="black"/>
  <circle cx="320.2" cy="110.7" r="4.4" fill="black"/>
  <circle cx="332.9" cy="281.1" r="4.1" fill="black"/>
  <circle cx="194.7" cy="245.6" r="4.1" fill="black"/>
  <circle cx="197.0" cy="131.2" r="4.1" fill="black"/>
  <circle cx="209.7" cy="110.7" r="4.1" fill="black"/>
  <circle cx="352.5" cy="152.6" r="3.9" fill="black"/>
  <circle cx="206.5" cy="226.5" r="3.7" fill="black"/>
  <circle cx="193.1" cy="213.2" r="3.7" fill="black"/>
  <circle cx="311.5" cy="292.6" r="3.5" fill="black"/>
  <circle cx="309.9" cy="239.9" r="3.5" fill="black"/>
  <circle cx="401.7" cy="221.2" r="3.5" fill="black"/>
  <circle cx="329.2" cy="151.2" r="3.5" fill="black"/>
  <circle cx="267.3" cy="339.6" r="3.2" fill="black"/>
  <circle cx="204.6" cy="295.1" r="3.2" fill="black"/>
  <circle cx="260.4" cy="318.8" r="3.0" fill="black"/>
  <circle cx="311.2" cy="315.9" r="3.0" fill="black"/>
  <circle cx="88.6" cy="253.5" r="3.0" fill="black"/>
  <circle cx="430.1" cy="229.5" r="3.0" fill="black"/>
  <circle cx="174.2" cy="228.1" r="3.0" fill="black"/>
  <circle cx="459.8" cy="226.3" r="3.0" fill="black"/>
  <circle cx="169.9" cy="195.0" r="3.0" fill="black"/>
  <circle cx="243.8" cy="334.3" r="2.8" fill="black"/>
  <circle cx="355.7" cy="171.7" r="2.8" fill="black"/>
  <circle cx="197.5" cy="254.4" r="2.5" fill="black"/>
  <circle cx="226.1" cy="322.3" r="2.3" fill="black"/>
  <circle cx="332.0" cy="302.3" r="1.8" fill="black"/>
  <circle cx="204.4" cy="271.6" r="1.8" fill="black"/>
</svg>