<svg xmlns="http://www.w3.org/2000/svg" viewBox="0 0 500 500" width="500" height="500" style="background:white">
  <circle cx="195.7" cy="247.6" r="10.3" fill="black"/>
  <circle cx="266.4" cy="363.0" r="9.9" fill="black"/>
  <circle cx="114.3" cy="281.9" r="9.9" fill="black"/>
  <circle cx="69.0" cy="241.8" r="9.9" fill="black"/>
  <circle cx="406.4" cy="291.6" r="9.7" fill="black"/>
  <circle cx="132.3" cy="266.8" r="9.5" fill="black"/>
  <circle cx="271.2" cy="187.3" r="9.5" fill="black"/>
  <circle cx="179.2" cy="183.3" r="9.5" fill="black"/>
  <circle cx="205.0" cy="357.2" r="9.3" fill="black"/>
  <circle cx="126.9" cy="309.2" r="9.3" fill="black"/>
  <circle cx="358.0" cy="308.2" r="9.3" fill="black"/>
  <circle cx="325.1" cy="288.8" r="9.3" fill="black"/>
  <circle cx="425.2" cy="247.6" r="9.3" fill="black"/>
  <circle cx="267.7" cy="234.4" r="9.3" fill="black"/>
  <circle cx="358.8" cy="194.7" r="9.3" fill="black"/>
  <circle cx="247.4" cy="136.6" r="9.3" fill="black"/>
  <circle cx="243.9" cy="300.7" r="9.1" fill="black"/>
  <circle cx="315.8" cy="244.5" r="9.1" fill="black"/>
  <circle cx="390.9" cy="237.1" r="9.1" fill="black"/>
  <circle cx="324.5" cy="187.5" r="9.1" fill="black"/>
  <circle cx="183.3" cy="137.7" r="9.1" fill="black"/>
  <circle cx="151.1" cy="337.3" r="8.9" fill="black"/>
  <circle cx="246.8" cy="372.1" r="8.7" fill="black"/>
  <circle cx="333.8" cy="308.0" r="8.7" fill="black"/>
  <circle cx="203.6" cy="132.3" r="8.7" fill="black"/>
  <circle cx="170.7" cy="343.1" r="8.5" fill="black"/>
  <circle cx="230.7" cy="285.2" r="8.5" fill="black"/>
  <circle cx="168.9" cy="267.5" r="8.5" fill="black"/>
  <circle cx="356.1" cy="215.6" r="8.5" fill="black"/>
  <circle cx="265.8" cy="323.1" r="8.3" fill="black"/>
  <circle cx="63.5" cy="259.8" r="8.3" fill="black"/>
  <circle cx="330.5" cy="259.0" r="8.3" fill="black"/>
  <circle cx="114.3" cy="257.5" r="8.3" fill="black"/>
  <circle cx="288.8" cy="236.0" r="8.3" fill="black"/>
  <circle cx="202.4" cy="228.6" r="8.3" fill="black"/>
  <circle cx="156.7" cy="165.2" r="8.3" fill="black"/>
  <circle cx="228.2" cy="378.3" r="8.1" fill="black"/>
  <circle cx="424.6" cy="265.4" r="8.1" fill="black"/>
  <circle cx="237.5" cy="252.4" r="8.1" fill="black"/>
  <circle cx="289.8" cy="195.1" r="8.1" fill="black"/>
  <circle cx="197.6" cy="190.6" r="8.1" fill="black"/>
  <circle cx="345.8" cy="180.4" r="8.1" fill="black"/>
  <circle cx="268.7" cy="339.6" r="7.9" fill="black"/>
  <circle cx="151.7" cy="265.0" r="7.9" fill="black"/>
  <circle cx="262.9" cy="170.7" r="7.9" fill="black"/>
  <circle cx="272.4" cy="155.4" r="7.9" fill="black"/>
  <circle cx="386.9" cy="296.6" r="7.6" fill="black"/>
  <circle cx="83.1" cy="262.3" r="7.6" fill="black"/>
  <circle cx="88.5" cy="247.4" r="7.4" fill="black"/>
  <circle cx="355.9" cy="233.4" r="7.4" fill="black"/>
  <circle cx="421.9" cy="229.8" r="7.4" fill="black"/>
  <circle cx="130.4" cy="292.7" r="7.2" fill="black"/>
  <circle cx="229.4" cy="132.3" r="7.2" fill="black"/>
  <circle cx="186.0" cy="351.6" r="7.0" fill="black"/>
  <circle cx="96.1" cy="274.3" r="7.0" fill="black"/>
  <circle cx="168.7" cy="153.4" r="7.0" fill="black"/>
  <circle cx="265.8" cy="139.1" r="7.0" fill="black"/>
  <circle cx="250.5" cy="318.9" r="6.8" fill="black"/>
  <circle cx="230.9" cy="267.5" r="6.8" fill="black"/>
  <circle cx="212.9" cy="215.2" r="6.8" fill="black"/>
  <circle cx="222.4" cy="362.3" r="6.6" fill="black"/>
  <circle cx="409.5" cy="242.7" r="6.6" fill="black"/>
  <circle cx="250.9" cy="241.2" r="6.6" fill="black"/>
  <circle cx="370.0" cy="238.5" r="6.6" fill="black"/>
  <circle cx="212.1" cy="200.1" r="6.4" fill="black"/>
  <circle cx="306.7" cy="192.4" r="6.4" fill="black"/>
  <circle cx="104.4" cy="244.3" r="6.2" fill="black"/>
  <circle cx="139.1" cy="323.9" r="6.0" fill="black"/>
  <circle cx="425.0" cy="282.6" r="6.0" fill="black"/>
  <circle cx="162.1" cy="180.2" r="6.0" fill="black"/>
  <circle cx="157.5" cy="279.0" r="5.8" fill="black"/>
  <circle cx="213.3" cy="372.1" r="5.6" fill="black"/>
  <circle cx="181.3" cy="256.7" r="5.6" fill="black"/>
  <circle cx="279.9" cy="352.4" r="5.4" fill="black"/>
  <circle cx="371.6" cy="298.9" r="5.4" fill="black"/>
  <circle cx="320.6" cy="271.4" r="5.4" fill="black"/>
  <circle cx="438.2" cy="257.8" r="5.4" fill="black"/>
  <circle cx="368.7" cy="225.1" r="5.4" fill="black"/>
  <circle cx="171.4" cy="168.7" r="5.4" fill="black"/>
  <circle cx="238.1" cy="237.1" r="5.2" fill="black"/>
  <circle cx="407.4" cy="229.6" r="5.2" fill="black"/>
  <circle cx="155.4" cy="150.9" r="5.2" fill="black"/>
  <circle cx="217.0" cy="124.4" r="5.2" fill="black"/>
  <circle cx="185.8" cy="337.1" r="5.0" fill="black"/>
  <circle cx="382.6" cy="311.3" r="5.0" fill="black"/>
  <circle cx="258.4" cy="309.0" r="5.0" fill="black"/>
  <circle cx="413.0" cy="275.9" r="5.0" fill="black"/>
  <circle cx="315.4" cy="259.6" r="5.0" fill="black"/>
  <circle cx="305.1" cy="232.3" r="5.0" fill="black"/>
  <circle cx="217.4" cy="139.1" r="5.0" fill="black"/>
  <circle cx="332.4" cy="273.9" r="4.8" fill="black"/>
  <circle cx="440.1" cy="246.0" r="4.8" fill="black"/>
  <circle cx="200.7" cy="210.6" r="4.8" fill="black"/>
  <circle cx="256.1" cy="183.8" r="4.8" fill="black"/>
  <circle cx="280.1" cy="334.6" r="4.5" fill="black"/>
  <circle cx="144.9" cy="276.8" r="4.5" fill="black"/>
  <circle cx="96.9" cy="261.7" r="4.5" fill="black"/>
  <circle cx="277.4" cy="201.3" r="4.5" fill="black"/>
  <circle cx="136.2" cy="335.9" r="4.3" fill="black"/>
  <circle cx="344.6" cy="318.7" r="4.3" fill="black"/>
  <circle cx="241.6" cy="274.7" r="4.3" fill="black"/>
  <circle cx="438.2" cy="270.6" r="4.3" fill="black"/>
  <circle cx="184.4" cy="268.3" r="4.3" fill="black"/>
  <circle cx="434.5" cy="236.5" r="4.3" fill="black"/>
  <circle cx="342.3" cy="193.3" r="4.3" fill="black"/>
  <circle cx="257.8" cy="149.0" r="4.3" fill="black"/>
  <circle cx="372.5" cy="315.2" r="4.1" fill="black"/>
  <circle cx="86.4" cy="233.6" r="4.1" fill="black"/>
  <circle cx="359.2" cy="179.8" r="4.1" fill="black"/>
  <circle cx="238.3" cy="123.0" r="4.1" fill="black"/>
  <circle cx="235.0" cy="364.8" r="3.9" fill="black"/>
  <circle cx="118.4" cy="297.2" r="3.9" fill="black"/>
  <circle cx="339.4" cy="293.7" r="3.9" fill="black"/>
  <circle cx="243.3" cy="264.6" r="3.9" fill="black"/>
  <circle cx="210.0" cy="239.1" r="3.9" fill="black"/>
  <circle cx="167.6" cy="140.3" r="3.9" fill="black"/>
  <circle cx="196.4" cy="344.6" r="3.7" fill="black"/>
  <circle cx="320.2" cy="304.7" r="3.7" fill="black"/>
  <circle cx="397.7" cy="304.3" r="3.7" fill="black"/>
  <circle cx="345.8" cy="301.0" r="3.7" fill="black"/>
  <circle cx="244.1" cy="286.1" r="3.7" fill="black"/>
  <circle cx="71.9" cy="269.7" r="3.7" fill="black"/>
  <circle cx="107.5" cy="268.1" r="3.7" fill="black"/>
  <circle cx="301.0" cy="243.1" r="3.7" fill="black"/>
  <circle cx="245.6" cy="230.7" r="3.7" fill="black"/>
  <circle cx="378.5" cy="229.6" r="3.7" fill="black"/>
  <circle cx="366.5" cy="206.7" r="3.7" fill="black"/>
  <circle cx="193.5" cy="178.0" r="3.7" fill="black"/>
  <circle cx="254.2" cy="228.2" r="3.5" fill="black"/>
  <circle cx="333.0" cy="175.1" r="3.5" fill="black"/>
  <circle cx="275.7" cy="172.0" r="3.5" fill="black"/>
  <circle cx="259.8" cy="158.5" r="3.5" fill="black"/>
  <circle cx="126.5" cy="323.7" r="3.3" fill="black"/>
  <circle cx="118.4" cy="268.9" r="3.3" fill="black"/>
  <circle cx="101.3" cy="254.0" r="3.3" fill="black"/>
  <circle cx="301.4" cy="202.6" r="3.3" fill="black"/>
  <circle cx="316.2" cy="197.8" r="3.3" fill="black"/>
  <circle cx="191.0" cy="261.9" r="3.1" fill="black"/>
  <circle cx="229.6" cy="243.5" r="2.7" fill="black"/>
  <circle cx="227.0" cy="257.3" r="2.5" fill="black"/>
  <circle cx="196.6" cy="202.1" r="2.5" fill="black"/>
  <circle cx="142.0" cy="314.4" r="2.3" fill="black"/>
  <circle cx="373.9" cy="306.3" r="2.3" fill="black"/>
</svg>