<svg xmlns="http://www.w3.org/2000/svg" viewBox="0 0 500 500" width="500" height="500" style="background:white">
  <circle cx="212.2" cy="212.9" r="11.5" fill="black"/>
  <circle cx="139.3" cy="195.2" r="11.5" fill="black"/>
  <circle cx="271.0" cy="350.8" r="11.3" fill="black"/>
  <circle cx="156.6" cy="281.4" r="11.0" fill="black"/>
  <circle cx="194.5" cy="344.4" r="10.8" fill="black"/>
  <circle cx="285.1" cy="283.4" r="10.8" fill="black"/>
  <circle cx="81.4" cy="225.5" r="10.8" fill="black"/>
  <circle cx="165.5" cy="258.2" r="10.6" fill="black"/>
  <circle cx="360.5" cy="235.2" r="10.6" fill="black"/>
  <circle cx="431.7" cy="236.1" r="10.1" fill="black"/>
  <circle cx="285.1" cy="333.3" r="9.9" fill="black"/>
  <circle cx="175.2" cy="200.7" r="9.7" fill="black"/>
  <circle cx="215.9" cy="354.0" r="9.4" fill="black"/>
  <circle cx="206.7" cy="235.6" r="9.2" fill="black"/>
  <circle cx="381.1" cy="224.6" r="9.2" fill="black"/>
  <circle cx="59.1" cy="215.9" r="9.2" fill="black"/>
  <circle cx="250.6" cy="344.8" r="9.0" fill="black"/>
  <circle cx="176.8" cy="331.0" r="8.7" fill="black"/>
  <circle cx="160.9" cy="319.5" r="8.7" fill="black"/>
  <circle cx="149.4" cy="301.4" r="8.7" fill="black"/>
  <circle cx="411.5" cy="232.9" r="8.7" fill="black"/>
  <circle cx="120.0" cy="206.2" r="8.7" fill="black"/>
  <circle cx="40.0" cy="218.6" r="8.5" fill="black"/>
  <circle cx="340.2" cy="247.1" r="8.3" fill="black"/>
  <circle cx="295.2" cy="261.4" r="8.0" fill="black"/>
  <circle cx="161.4" cy="187.4" r="7.8" fill="black"/>
  <circle cx="160.2" cy="339.1" r="7.6" fill="black"/>
  <circle cx="289.0" cy="305.3" r="7.6" fill="black"/>
  <circle cx="185.5" cy="257.0" r="7.6" fill="black"/>
  <circle cx="235.6" cy="357.0" r="7.4" fill="black"/>
  <circle cx="136.8" cy="287.4" r="7.4" fill="black"/>
  <circle cx="209.4" cy="254.0" r="7.4" fill="black"/>
  <circle cx="310.1" cy="248.7" r="7.4" fill="black"/>
  <circle cx="325.5" cy="257.5" r="7.1" fill="black"/>
  <circle cx="394.0" cy="237.7" r="7.1" fill="black"/>
  <circle cx="222.5" cy="228.3" r="7.1" fill="black"/>
  <circle cx="157.5" cy="203.2" r="7.1" fill="black"/>
  <circle cx="300.2" cy="319.1" r="6.9" fill="black"/>
  <circle cx="101.6" cy="223.0" r="6.9" fill="black"/>
  <circle cx="103.2" cy="206.7" r="6.7" fill="black"/>
  <circle cx="252.9" cy="360.7" r="6.2" fill="black"/>
  <circle cx="174.9" cy="346.7" r="6.0" fill="black"/>
  <circle cx="231.7" cy="342.8" r="6.0" fill="black"/>
  <circle cx="49.7" cy="230.1" r="6.0" fill="black"/>
  <circle cx="178.2" cy="245.5" r="5.5" fill="black"/>
  <circle cx="144.1" cy="318.6" r="5.3" fill="black"/>
  <circle cx="146.4" cy="264.4" r="5.3" fill="black"/>
  <circle cx="194.5" cy="246.4" r="5.3" fill="black"/>
  <circle cx="221.4" cy="244.6" r="5.3" fill="black"/>
  <circle cx="325.1" cy="243.2" r="5.3" fill="black"/>
  <circle cx="300.7" cy="335.4" r="5.1" fill="black"/>
  <circle cx="280.5" cy="266.0" r="5.1" fill="black"/>
  <circle cx="311.3" cy="262.8" r="5.1" fill="black"/>
  <circle cx="353.8" cy="251.7" r="5.1" fill="black"/>
  <circle cx="176.1" cy="183.2" r="5.1" fill="black"/>
  <circle cx="210.8" cy="338.6" r="4.8" fill="black"/>
  <circle cx="377.9" cy="239.5" r="4.8" fill="black"/>
  <circle cx="64.1" cy="230.1" r="4.8" fill="black"/>
  <circle cx="288.0" cy="348.5" r="4.4" fill="black"/>
  <circle cx="302.3" cy="305.3" r="4.4" fill="black"/>
  <circle cx="419.1" cy="245.7" r="4.4" fill="black"/>
  <circle cx="448.0" cy="237.2" r="4.4" fill="black"/>
  <circle cx="133.8" cy="211.5" r="4.1" fill="black"/>
  <circle cx="199.1" cy="223.9" r="3.9" fill="black"/>
  <circle cx="114.0" cy="217.9" r="3.9" fill="black"/>
  <circle cx="149.9" cy="329.0" r="3.7" fill="black"/>
  <circle cx="141.1" cy="273.8" r="3.7" fill="black"/>
  <circle cx="299.3" cy="273.6" r="3.7" fill="black"/>
  <circle cx="405.1" cy="245.1" r="3.7" fill="black"/>
  <circle cx="337.7" cy="260.0" r="3.2" fill="black"/>
  <circle cx="447.6" cy="220.5" r="11.0" fill="black"/>
  <circle cx="245.3" cy="170.1" r="11.0" fill="black"/>
  <circle cx="261.4" cy="51.3" r="11.0" fill="black"/>
  <circle cx="46.9" cy="197.0" r="10.8" fill="black"/>
  <circle cx="323.7" cy="194.9" r="10.8" fill="black"/>
  <circle cx="107.4" cy="185.7" r="10.8" fill="black"/>
  <circle cx="421.4" cy="169.2" r="10.8" fill="black"/>
  <circle cx="180.5" cy="70.8" r="10.8" fill="black"/>
  <circle cx="292.9" cy="209.7" r="10.6" fill="black"/>
  <circle cx="152.9" cy="124.6" r="10.6" fill="black"/>
  <circle cx="334.3" cy="92.9" r="10.6" fill="black"/>
  <circle cx="440.7" cy="183.9" r="10.3" fill="black"/>
  <circle cx="275.2" cy="113.1" r="10.3" fill="black"/>
  <circle cx="330.1" cy="173.1" r="9.9" fill="black"/>
  <circle cx="300.2" cy="71.7" r="9.7" fill="black"/>
  <circle cx="120.0" cy="166.7" r="9.4" fill="black"/>
  <circle cx="386.4" cy="161.6" r="9.4" fill="black"/>
  <circle cx="197.0" cy="55.9" r="9.2" fill="black"/>
  <circle cx="78.2" cy="203.9" r="9.0" fill="black"/>
  <circle cx="297.0" cy="110.8" r="9.0" fill="black"/>
  <circle cx="142.1" cy="91.7" r="9.0" fill="black"/>
  <circle cx="155.9" cy="147.1" r="8.7" fill="black"/>
  <circle cx="247.1" cy="146.4" r="8.7" fill="black"/>
  <circle cx="162.3" cy="82.1" r="8.7" fill="black"/>
  <circle cx="228.7" cy="53.8" r="8.7" fill="black"/>
  <circle cx="86.9" cy="186.7" r="8.5" fill="black"/>
  <circle cx="362.8" cy="166.9" r="8.5" fill="black"/>
  <circle cx="244.8" cy="126.7" r="8.5" fill="black"/>
  <circle cx="136.6" cy="110.3" r="8.5" fill="black"/>
  <circle cx="280.9" cy="65.5" r="8.5" fill="black"/>
  <circle cx="139.1" cy="158.9" r="8.0" fill="black"/>
  <circle cx="315.4" cy="100.7" r="8.0" fill="black"/>
  <circle cx="192.6" cy="213.3" r="7.8" fill="black"/>
  <circle cx="344.6" cy="159.5" r="7.8" fill="black"/>
  <circle cx="405.3" cy="155.6" r="7.8" fill="black"/>
  <circle cx="316.8" cy="83.2" r="7.8" fill="black"/>
  <circle cx="214.5" cy="64.4" r="7.8" fill="black"/>
  <circle cx="312.9" cy="211.7" r="7.6" fill="black"/>
  <circle cx="453.1" cy="200.2" r="7.6" fill="black"/>
  <circle cx="66.4" cy="189.2" r="7.6" fill="black"/>
  <circle cx="262.5" cy="184.4" r="7.6" fill="black"/>
  <circle cx="276.6" cy="196.6" r="7.4" fill="black"/>
  <circle cx="328.3" cy="112.0" r="7.1" fill="black"/>
  <circle cx="259.3" cy="200.5" r="6.9" fill="black"/>
  <circle cx="261.1" cy="130.1" r="6.9" fill="black"/>
  <circle cx="294.5" cy="54.9" r="6.9" fill="black"/>
  <circle cx="192.2" cy="196.6" r="6.7" fill="black"/>
  <circle cx="401.6" cy="170.1" r="6.2" fill="black"/>
  <circle cx="359.8" cy="150.8" r="6.2" fill="black"/>
  <circle cx="327.6" cy="71.7" r="6.2" fill="black"/>
  <circle cx="243.2" cy="43.0" r="6.2" fill="black"/>
  <circle cx="248.3" cy="188.5" r="6.0" fill="black"/>
  <circle cx="231.5" cy="139.3" r="6.0" fill="black"/>
  <circle cx="312.9" cy="117.0" r="6.0" fill="black"/>
  <circle cx="256.3" cy="115.6" r="6.0" fill="black"/>
  <circle cx="147.6" cy="74.9" r="6.0" fill="black"/>
  <circle cx="280.5" cy="48.3" r="6.0" fill="black"/>
  <circle cx="373.6" cy="151.0" r="5.7" fill="black"/>
  <circle cx="398.4" cy="222.8" r="5.5" fill="black"/>
  <circle cx="307.1" cy="197.7" r="5.5" fill="black"/>
  <circle cx="212.4" cy="49.2" r="5.5" fill="black"/>
  <circle cx="269.4" cy="209.7" r="5.3" fill="black"/>
  <circle cx="439.3" cy="200.9" r="5.3" fill="black"/>
  <circle cx="348.0" cy="173.6" r="5.3" fill="black"/>
  <circle cx="243.9" cy="58.2" r="5.3" fill="black"/>
  <circle cx="134.7" cy="303.7" r="5.1" fill="black"/>
  <circle cx="340.7" cy="185.1" r="5.1" fill="black"/>
  <circle cx="166.9" cy="135.4" r="5.1" fill="black"/>
  <circle cx="163.2" cy="67.4" r="4.8" fill="black"/>
  <circle cx="134.0" cy="174.9" r="4.6" fill="black"/>
  <circle cx="232.4" cy="150.6" r="4.6" fill="black"/>
  <circle cx="154.7" cy="108.3" r="4.6" fill="black"/>
  <circle cx="341.4" cy="107.6" r="4.6" fill="black"/>
  <circle cx="125.1" cy="181.4" r="4.4" fill="black"/>
  <circle cx="288.7" cy="123.4" r="4.4" fill="black"/>
  <circle cx="157.7" cy="96.3" r="4.4" fill="black"/>
  <circle cx="197.5" cy="71.5" r="4.4" fill="black"/>
  <circle cx="152.0" cy="161.6" r="4.1" fill="black"/>
  <circle cx="221.1" cy="40.0" r="4.1" fill="black"/>
  <circle cx="63.7" cy="201.6" r="3.9" fill="black"/>
  <circle cx="94.3" cy="197.5" r="3.9" fill="black"/>
  <circle cx="123.2" cy="192.4" r="3.9" fill="black"/>
  <circle cx="425.1" cy="186.0" r="3.9" fill="black"/>
  <circle cx="440.7" cy="168.7" r="3.9" fill="black"/>
  <circle cx="394.3" cy="149.9" r="3.9" fill="black"/>
  <circle cx="140.5" cy="144.6" r="3.9" fill="black"/>
  <circle cx="317.0" cy="68.5" r="3.9" fill="black"/>
  <circle cx="308.0" cy="58.4" r="3.9" fill="black"/>
  <circle cx="197.7" cy="261.8" r="3.7" fill="black"/>
  <circle cx="91.7" cy="211.5" r="3.7" fill="black"/>
  <circle cx="456.1" cy="186.7" r="3.7" fill="black"/>
  <circle cx="175.4" cy="88.0" r="3.7" fill="black"/>
  <circle cx="457.0" cy="233.3" r="3.4" fill="black"/>
  <circle cx="288.3" cy="318.6" r="3.0" fill="black"/>
  <circle cx="460.0" cy="209.7" r="2.3" fill="black"/>
  <circle cx="295.4" cy="294.7" r="2.1" fill="black"/>
  <circle cx="333.6" cy="259.1" r="1.4" fill="black"/>
</svg>