<svg xmlns="http://www.w3.org/2000/svg" viewBox="0 0 500 500" width="500" height="500" style="background:white">
  <circle cx="153.8" cy="276.2" r="12.5" fill="black"/>
  <circle cx="90.7" cy="233.7" r="12.5" fill="black"/>
  <circle cx="315.3" cy="208.0" r="12.5" fill="black"/>
  <circle cx="409.8" cy="195.3" r="12.5" fill="black"/>
  <circle cx="40.0" cy="140.6" r="12.5" fill="black"/>
  <circle cx="114.0" cy="110.0" r="12.5" fill="black"/>
  <circle cx="192.0" cy="45.7" r="12.5" fill="black"/>
  <circle cx="237.0" cy="274.7" r="12.3" fill="black"/>
  <circle cx="233.7" cy="143.7" r="12.3" fill="black"/>
  <circle cx="273.8" cy="69.0" r="12.0" fill="black"/>
  <circle cx="390.2" cy="210.4" r="10.1" fill="black"/>
  <circle cx="278.0" cy="104.8" r="9.9" fill="black"/>
  <circle cx="235.6" cy="298.3" r="9.7" fill="black"/>
  <circle cx="130.7" cy="266.3" r="9.7" fill="black"/>
  <circle cx="337.9" cy="216.5" r="9.7" fill="black"/>
  <circle cx="271.7" cy="205.5" r="9.7" fill="black"/>
  <circle cx="208.3" cy="154.3" r="9.7" fill="black"/>
  <circle cx="218.2" cy="43.3" r="9.7" fill="black"/>
  <circle cx="199.6" cy="305.2" r="9.4" fill="black"/>
  <circle cx="241.3" cy="246.7" r="9.4" fill="black"/>
  <circle cx="104.3" cy="214.2" r="9.4" fill="black"/>
  <circle cx="157.6" cy="174.6" r="9.2" fill="black"/>
  <circle cx="258.5" cy="134.0" r="9.2" fill="black"/>
  <circle cx="105.5" cy="132.4" r="9.2" fill="black"/>
  <circle cx="158.3" cy="69.2" r="9.2" fill="black"/>
  <circle cx="250.5" cy="214.6" r="9.0" fill="black"/>
  <circle cx="445.2" cy="180.5" r="9.0" fill="black"/>
  <circle cx="95.9" cy="257.5" r="8.7" fill="black"/>
  <circle cx="139.2" cy="186.6" r="8.7" fill="black"/>
  <circle cx="85.0" cy="136.2" r="8.7" fill="black"/>
  <circle cx="166.8" cy="48.5" r="8.7" fill="black"/>
  <circle cx="423.9" cy="178.1" r="8.5" fill="black"/>
  <circle cx="180.2" cy="168.7" r="8.5" fill="black"/>
  <circle cx="64.3" cy="136.4" r="8.5" fill="black"/>
  <circle cx="292.4" cy="85.3" r="8.5" fill="black"/>
  <circle cx="144.2" cy="84.5" r="8.2" fill="black"/>
  <circle cx="371.6" cy="222.7" r="8.0" fill="black"/>
  <circle cx="124.6" cy="86.7" r="8.0" fill="black"/>
  <circle cx="179.5" cy="301.6" r="7.8" fill="black"/>
  <circle cx="292.7" cy="208.5" r="7.8" fill="black"/>
  <circle cx="276.6" cy="125.1" r="7.8" fill="black"/>
  <circle cx="222.9" cy="312.5" r="7.5" fill="black"/>
  <circle cx="247.9" cy="52.5" r="7.5" fill="black"/>
  <circle cx="139.9" cy="68.5" r="6.6" fill="black"/>
  <circle cx="176.7" cy="61.9" r="6.6" fill="black"/>
  <circle cx="253.1" cy="232.3" r="6.4" fill="black"/>
  <circle cx="238.0" cy="229.3" r="6.4" fill="black"/>
  <circle cx="196.7" cy="167.7" r="6.4" fill="black"/>
  <circle cx="264.1" cy="50.6" r="6.4" fill="black"/>
  <circle cx="358.2" cy="212.1" r="6.1" fill="black"/>
  <circle cx="454.6" cy="165.4" r="6.1" fill="black"/>
  <circle cx="262.3" cy="116.6" r="6.1" fill="black"/>
  <circle cx="237.7" cy="40.0" r="6.1" fill="black"/>
  <circle cx="172.7" cy="285.8" r="5.9" fill="black"/>
  <circle cx="114.7" cy="256.1" r="5.9" fill="black"/>
  <circle cx="355.4" cy="226.9" r="5.9" fill="black"/>
  <circle cx="190.1" cy="154.5" r="5.9" fill="black"/>
  <circle cx="217.7" cy="298.3" r="5.7" fill="black"/>
  <circle cx="227.8" cy="256.4" r="5.7" fill="black"/>
  <circle cx="285.6" cy="194.1" r="5.7" fill="black"/>
  <circle cx="123.9" cy="193.0" r="5.7" fill="black"/>
  <circle cx="57.9" cy="152.4" r="5.7" fill="black"/>
  <circle cx="94.2" cy="119.4" r="5.7" fill="black"/>
  <circle cx="231.6" cy="54.4" r="5.7" fill="black"/>
  <circle cx="73.9" cy="148.9" r="5.4" fill="black"/>
  <circle cx="165.2" cy="294.8" r="5.2" fill="black"/>
  <circle cx="372.1" cy="207.6" r="5.2" fill="black"/>
  <circle cx="110.7" cy="267.0" r="4.9" fill="black"/>
  <circle cx="429.8" cy="192.5" r="4.9" fill="black"/>
  <circle cx="245.1" cy="127.0" r="4.9" fill="black"/>
  <circle cx="275.9" cy="89.0" r="4.9" fill="black"/>
  <circle cx="208.8" cy="317.6" r="4.7" fill="black"/>
  <circle cx="264.8" cy="220.1" r="4.7" fill="black"/>
  <circle cx="121.8" cy="205.7" r="4.7" fill="black"/>
  <circle cx="254.2" cy="65.7" r="4.7" fill="black"/>
  <circle cx="106.9" cy="247.9" r="4.5" fill="black"/>
  <circle cx="228.1" cy="237.3" r="4.5" fill="black"/>
  <circle cx="439.3" cy="166.3" r="4.5" fill="black"/>
  <circle cx="293.1" cy="100.8" r="4.5" fill="black"/>
  <circle cx="152.2" cy="54.4" r="4.5" fill="black"/>
  <circle cx="460.0" cy="184.2" r="4.2" fill="black"/>
  <circle cx="74.2" cy="124.6" r="4.2" fill="black"/>
  <circle cx="131.7" cy="201.4" r="4.0" fill="black"/>
  <circle cx="166.8" cy="161.9" r="4.0" fill="black"/>
  <circle cx="84.1" cy="121.8" r="3.8" fill="black"/>
  <circle cx="187.1" cy="312.9" r="3.5" fill="black"/>
  <circle cx="224.5" cy="288.7" r="3.5" fill="black"/>
</svg>