<?xml version="1.0" encoding="UTF-8"?>
<svg viewBox="263 588 1880 1288" width="512" height="512" xmlns="http://www.w3.org/2000/svg">
  <circle cx="1281" cy="1780" r="52" fill="#000000" />
  <circle cx="1505" cy="1722" r="52" fill="#000000" />
  <circle cx="1070" cy="1705" r="52" fill="#000000" />
  <circle cx="916" cy="1593" r="51" fill="#000000" />
  <circle cx="794" cy="1319" r="51" fill="#000000" />
  <circle cx="1253" cy="1263" r="51" fill="#000000" />
  <circle cx="1067" cy="1264" r="51" fill="#000000" />
  <circle cx="448" cy="1192" r="51" fill="#000000" />
  <circle cx="1372" cy="1039" r="51" fill="#000000" />
  <circle cx="651" cy="938" r="51" fill="#000000" />
  <circle cx="1567" cy="869" r="51" fill="#000000" />
  <circle cx="1426" cy="687" r="51" fill="#000000" />
  <circle cx="1191" cy="666" r="51" fill="#000000" />
  <circle cx="1695" cy="1575" r="50" fill="#000000" />
  <circle cx="1632" cy="1303" r="50" fill="#000000" />
  <circle cx="1930" cy="1154" r="50" fill="#000000" />
  <circle cx="1772" cy="1107" r="50" fill="#000000" />
  <circle cx="839" cy="893" r="50" fill="#000000" />
  <circle cx="1003" cy="825" r="49" fill="#000000" />
  <circle cx="324" cy="1173" r="41" fill="#000000" />
  <circle cx="1678" cy="1476" r="39" fill="#000000" />
  <circle cx="810" cy="1464" r="39" fill="#000000" />
  <circle cx="751" cy="1405" r="39" fill="#000000" />
  <circle cx="1162" cy="1308" r="39" fill="#000000" />
  <circle cx="1296" cy="1175" r="39" fill="#000000" />
  <circle cx="2084" cy="1164" r="39" fill="#000000" />
  <circle cx="1553" cy="775" r="39" fill="#000000" />
  <circle cx="1186" cy="1818" r="38" fill="#000000" />
  <circle cx="1426" cy="1787" r="38" fill="#000000" />
  <circle cx="983" cy="1662" r="38" fill="#000000" />
  <circle cx="1575" cy="1654" r="38" fill="#000000" />
  <circle cx="1682" cy="1221" r="38" fill="#000000" />
  <circle cx="557" cy="1087" r="38" fill="#000000" />
  <circle cx="793" cy="1541" r="37" fill="#000000" />
  <circle cx="862" cy="1252" r="37" fill="#000000" />
  <circle cx="585" cy="1008" r="36" fill="#000000" />
  <circle cx="1631" cy="797" r="35" fill="#000000" />
  <circle cx="1659" cy="1666" r="34" fill="#000000" />
  <circle cx="1642" cy="1398" r="34" fill="#000000" />
  <circle cx="2015" cy="1209" r="34" fill="#000000" />
  <circle cx="1479" cy="919" r="34" fill="#000000" />
  <circle cx="1863" cy="1091" r="32" fill="#000000" />
  <circle cx="1406" cy="954" r="31" fill="#000000" />
  <circle cx="1032" cy="744" r="31" fill="#000000" />
  <circle cx="1105" cy="722" r="31" fill="#000000" />
  <circle cx="936" cy="1278" r="30" fill="#000000" />
  <circle cx="1686" cy="1148" r="30" fill="#000000" />
  <circle cx="920" cy="860" r="30" fill="#000000" />
  <circle cx="1330" cy="688" r="30" fill="#000000" />
  <circle cx="1279" cy="638" r="30" fill="#000000" />
  <circle cx="1148" cy="1749" r="29" fill="#000000" />
  <circle cx="866" cy="1522" r="29" fill="#000000" />
  <circle cx="750" cy="930" r="29" fill="#000000" />
  <circle cx="1516" cy="692" r="28" fill="#000000" />
  <circle cx="1109" cy="653" r="28" fill="#000000" />
  <circle cx="1365" cy="1743" r="27" fill="#000000" />
  <circle cx="985" cy="1227" r="27" fill="#000000" />
  <circle cx="535" cy="1188" r="27" fill="#000000" />
  <circle cx="711" cy="879" r="27" fill="#000000" />
  <circle cx="1743" cy="1502" r="26" fill="#000000" />
  <circle cx="1369" cy="1137" r="26" fill="#000000" />
  <circle cx="630" cy="1076" r="26" fill="#000000" />
  <circle cx="1090" cy="1785" r="25" fill="#000000" />
  <circle cx="1712" cy="1412" r="25" fill="#000000" />
  <circle cx="1458" cy="997" r="25" fill="#000000" />
  <circle cx="1055" cy="690" r="25" fill="#000000" />
  <circle cx="820" cy="1393" r="24" fill="#000000" />
  <circle cx="925" cy="1219" r="24" fill="#000000" />
  <circle cx="501" cy="1130" r="24" fill="#000000" />
  <circle cx="967" cy="900" r="24" fill="#000000" />
  <circle cx="1266" cy="697" r="24" fill="#000000" />
  <circle cx="1596" cy="1720" r="23" fill="#000000" />
  <circle cx="365" cy="1233" r="23" fill="#000000" />
  <circle cx="585" cy="1153" r="23" fill="#000000" />
  <circle cx="2013" cy="1147" r="23" fill="#000000" />
  <circle cx="1078" cy="789" r="23" fill="#000000" />
  <circle cx="311" cy="1242" r="22" fill="#000000" />
  <circle cx="646" cy="1023" r="22" fill="#000000" />
  <circle cx="915" cy="922" r="22" fill="#000000" />
  <circle cx="1358" cy="1807" r="21" fill="#000000" />
  <circle cx="1423" cy="1723" r="21" fill="#000000" />
  <circle cx="738" cy="1466" r="21" fill="#000000" />
  <circle cx="1328" cy="1233" r="21" fill="#000000" />
  <circle cx="1610" cy="1224" r="21" fill="#000000" />
  <circle cx="1736" cy="1180" r="21" fill="#000000" />
  <circle cx="1323" cy="1104" r="21" fill="#000000" />
  <circle cx="766" cy="872" r="21" fill="#000000" />
  <circle cx="1487" cy="749" r="21" fill="#000000" />
  <circle cx="1042" cy="1632" r="20" fill="#000000" />
  <circle cx="1627" cy="1611" r="20" fill="#000000" />
  <circle cx="993" cy="1594" r="20" fill="#000000" />
  <circle cx="1699" cy="1354" r="20" fill="#000000" />
  <circle cx="1359" cy="1193" r="20" fill="#000000" />
  <circle cx="1634" cy="1179" r="20" fill="#000000" />
  <circle cx="1575" cy="712" r="20" fill="#000000" />
  <circle cx="1206" cy="1747" r="19" fill="#000000" />
  <circle cx="1176" cy="1235" r="19" fill="#000000" />
  <circle cx="1843" cy="1156" r="19" fill="#000000" />
  <circle cx="1541" cy="944" r="19" fill="#000000" />
  <circle cx="991" cy="1283" r="18" fill="#000000" />
  <circle cx="2083" cy="1230" r="18" fill="#000000" />
  <circle cx="839" cy="1574" r="17" fill="#000000" />
  <circle cx="1220" cy="1338" r="17" fill="#000000" />
  <circle cx="1609" cy="746" r="17" fill="#000000" />
  <circle cx="1138" cy="1254" r="14" fill="#000000" />
  <circle cx="1264" cy="1333" r="13" fill="#000000" />
  <circle cx="1326" cy="1276" r="13" fill="#000000" />
  <circle cx="384" cy="1168" r="13" fill="#000000" />
  <circle cx="613" cy="1122" r="13" fill="#000000" />
  <circle cx="718" cy="971" r="13" fill="#000000" />
  <circle cx="1501" cy="968" r="13" fill="#000000" />
  <circle cx="1368" cy="635" r="13" fill="#000000" />
  <circle cx="1334" cy="632" r="13" fill="#000000" />
  <circle cx="755" cy="1501" r="12" fill="#000000" />
  <circle cx="1730" cy="1453" r="12" fill="#000000" />
  <circle cx="1634" cy="853" r="12" fill="#000000" />
  <circle cx="1128" cy="1799" r="11" fill="#000000" />
  <circle cx="878" cy="1311" r="11" fill="#000000" />
  <circle cx="545" cy="1141" r="11" fill="#000000" />
  <circle cx="1520" cy="822" r="10" fill="#000000" />
</svg>